<svg width="30" height="31" viewBox="0 0 30 31" fill="none" xmlns="http://www.w3.org/2000/svg">
<path d="M14.9986 26.838C10.0252 22.3038 5.10696 17.8188 0.0568237 13.215C2.81158 13.215 5.41707 13.215 8.08488 13.215C8.08488 11.4934 8.08488 9.86318 8.08488 8.17932C12.6945 8.17932 17.2418 8.17932 21.8847 8.17932C21.8847 9.80812 21.8847 11.4558 21.8847 13.1744C24.5699 13.1744 27.1609 13.1744 29.9867 13.1744C24.896 17.8159 19.9705 22.3052 14.9986 26.838ZM14.9957 24.6397C18.5663 21.4358 22.0905 18.2724 25.7799 14.9626C23.8671 14.9626 22.189 14.9626 20.4327 14.9626C20.4327 13.1498 20.4327 11.4007 20.4327 9.64872C16.7723 9.64872 13.193 9.64872 9.55137 9.64872C9.55137 11.4427 9.55137 13.1715 9.55137 14.993C7.79795 14.993 6.10829 14.993 4.24619 14.993C7.90809 18.2796 11.4265 21.4372 14.9957 24.6397Z" fill="white"/>
<path d="M14.9032 30.0103C10.4863 30.0103 6.06945 30.0103 1.65402 30.0089C1.41347 30.0089 1.15843 30.0437 0.933814 29.9814C0.381704 29.8292 -0.0327407 29.5075 0.00203785 28.867C0.0353673 28.2497 0.417932 27.9193 1.00772 27.8265C1.22074 27.7932 1.441 27.8077 1.65837 27.8077C10.5399 27.8077 19.4215 27.8063 28.3031 27.8077C29.4522 27.8077 30 28.1656 30 28.9105C30 29.6611 29.4609 30.0089 28.2987 30.0089C23.8326 30.0103 19.3679 30.0103 14.9032 30.0103Z" fill="white"/>
<path d="M14.9239 2.19612C13.1371 2.19612 11.3504 2.20047 9.56216 2.19467C8.65646 2.19177 8.13334 1.79472 8.1174 1.12523C8.10001 0.436906 8.66081 0.00362277 9.58969 0.00217366C13.2125 -0.000724553 16.8338 -0.000724553 20.4565 0.00217366C21.3622 0.00362277 21.8694 0.393433 21.8868 1.07741C21.9042 1.78602 21.3869 2.19033 20.4305 2.19322C18.5944 2.20047 16.7599 2.19612 14.9239 2.19612Z" fill="white"/>
<path d="M14.9973 6.25792C13.1859 6.25792 11.3745 6.26226 9.56313 6.25502C8.66469 6.25212 8.13576 5.85072 8.11837 5.18848C8.09953 4.5045 8.66903 4.06542 9.59356 4.06542C13.1917 4.06397 16.7898 4.06397 20.3894 4.06542C21.3589 4.06542 21.8776 4.44074 21.8892 5.1421C21.9023 5.8768 21.3878 6.25502 20.3604 6.25792C18.5708 6.26081 16.784 6.25792 14.9973 6.25792Z" fill="white"/>
</svg>
