<svg width="32" height="26" viewBox="0 0 32 26" fill="none" xmlns="http://www.w3.org/2000/svg">
<path d="M1.30611 25.3174C1.30611 22.8623 1.30611 20.4597 1.30611 18.0088C0.862761 18.0088 0.453756 18.0088 0 18.0088C0 17.3809 0 16.7991 0 16.1754C6.97598 16.1754 13.9728 16.1754 20.9893 16.1754C20.9893 16.774 20.9893 17.3558 20.9893 17.9848C20.545 17.9848 20.1339 17.9848 19.6676 17.9848C19.6676 20.4471 19.6676 22.8634 19.6676 25.3174C13.5336 25.3174 7.45575 25.3174 1.30611 25.3174Z" fill="white"/>
<path d="M21.4199 12.4699C21.4199 11.7991 21.4199 11.2267 21.4199 10.6239C24.949 10.6239 28.4593 10.6239 31.9999 10.6239C31.9999 11.2277 31.9999 11.8106 31.9999 12.4353C31.5701 12.4353 31.16 12.4353 30.6938 12.4353C30.6938 14.8914 30.6938 17.3066 30.6938 19.7669C29.1431 19.7669 27.6476 19.7669 26.1177 19.7669C26.1177 18.5771 26.1177 17.3841 26.1177 16.1513C26.5434 16.1513 26.9544 16.1513 27.4061 16.1513C27.4061 14.9197 27.4061 13.7267 27.4061 12.4688C25.435 12.4699 23.4524 12.4699 21.4199 12.4699Z" fill="white"/>
<path d="M15.9114 15.2134C15.9114 14.5573 15.9114 14.0037 15.9114 13.4166C19.4374 13.4166 22.9447 13.4166 26.4862 13.4166C26.4862 13.9943 26.4862 14.5604 26.4862 15.1914C26.0637 15.1914 25.6401 15.1914 25.1614 15.1914C25.1614 17.6852 25.1614 20.1161 25.1614 22.5774C23.6211 22.5774 22.1381 22.5774 20.6155 22.5774C20.6155 21.3782 20.6155 20.1852 20.6155 18.9273C21.0245 18.9273 21.4481 18.9273 21.905 18.9273C21.905 17.6684 21.905 16.4734 21.905 15.2145C19.9193 15.2134 17.9367 15.2134 15.9114 15.2134Z" fill="white"/>
<path d="M14.961 15.181C11.9596 15.181 9.01641 15.181 5.95148 15.181C6.00976 14.4653 5.96188 13.7359 6.14401 13.0714C6.54885 11.5979 8.34202 11.0464 9.30365 11.7873C10.1113 12.41 10.8502 12.4288 11.6651 11.7978C12.7932 10.923 14.8434 11.824 14.9569 13.6134C14.9881 14.1147 14.961 14.6201 14.961 15.181Z" fill="white"/>
<path d="M15.1897 11.9501C15.5134 11.3861 15.7902 10.8105 16.1638 10.3082C16.2731 10.1607 16.6925 10.124 16.9079 10.2046C17.3575 10.372 17.7551 10.6787 18.1984 10.8691C18.3826 10.9486 18.6491 10.933 18.8437 10.8639C19.1497 10.754 19.4275 10.5636 19.7158 10.4045C21.1125 9.63429 22.8265 10.5458 22.9795 12.1615C23.0305 12.6952 22.9879 13.2383 22.9879 13.8536C22.5237 13.8536 22.0803 13.8536 21.637 13.8536C20.5963 13.8536 19.5555 13.8641 18.5159 13.8432C18.3431 13.84 18.0954 13.7448 18.0153 13.6119C17.3554 12.5204 16.4115 11.9585 15.1897 11.9501Z" fill="white"/>
<path d="M18.1791 7.76593C18.4986 7.21339 18.7651 6.64725 19.1397 6.16588C19.2605 6.00995 19.6955 5.98274 19.9307 6.06228C20.3501 6.20564 20.7393 6.45679 21.1171 6.70062C21.3898 6.87643 21.6021 6.83666 21.8758 6.70167C22.4544 6.41598 22.9415 5.92833 23.6627 5.9503C24.8606 5.98588 25.8024 6.75504 25.9554 7.94801C26.0252 8.49217 25.9669 9.05308 25.9669 9.66631C25.2113 9.66631 24.4891 9.66631 23.7658 9.66631C23.3151 9.66631 22.8614 9.63492 22.4138 9.67364C21.6239 9.74061 21.0089 9.63596 20.5104 8.84902C20.0025 8.04743 19.0752 7.80464 18.1791 7.76593Z" fill="white"/>
<path d="M16.0066 2.74712C17.2919 2.75549 18.3909 3.88463 18.366 5.16969C18.341 6.45685 17.269 7.52634 15.9994 7.52948C14.7068 7.53262 13.613 6.43592 13.614 5.13725C13.6161 3.83963 14.7182 2.73875 16.0066 2.74712Z" fill="white"/>
<path d="M10.5015 10.2763C9.17247 10.2805 8.10989 9.21417 8.12342 7.89039C8.13695 6.57812 9.17663 5.54316 10.4838 5.54212C11.8086 5.54002 12.8691 6.60219 12.8618 7.92493C12.8546 9.22045 11.7982 10.2732 10.5015 10.2763Z" fill="white"/>
<path d="M21.4773 4.73527C20.1566 4.73004 19.1013 3.65322 19.1211 2.33153C19.1408 1.03705 20.2003 0 21.5043 0C22.799 0 23.8449 1.04647 23.8595 2.35769C23.8751 3.67624 22.8084 4.7405 21.4773 4.73527Z" fill="white"/>
</svg>
