<svg width="19" height="19" viewBox="0 0 19 19" fill="none" xmlns="http://www.w3.org/2000/svg">
<path d="M10.2422 0C12.6514 0 15.0601 0 17.4693 0C17.4875 0.00352813 17.5051 0.00705625 17.5233 0.0105844C17.6382 0.0312491 17.7581 0.0378014 17.868 0.0740907C18.4839 0.27721 18.8549 0.699073 18.9718 1.33918C18.9844 1.40873 18.991 1.47929 19 1.54885C19 4.48375 19 7.41814 19 10.353C18.9935 10.3984 18.9864 10.4438 18.9804 10.4896C18.9194 10.9483 18.6971 11.3112 18.3247 11.5808C18.0419 11.7855 17.7208 11.8701 17.3746 11.8701C15.0309 11.8701 12.6872 11.8701 10.3435 11.8696C10.1762 11.8696 10.0104 11.855 9.84909 11.8056C9.35112 11.6529 9.00839 11.3323 8.81586 10.85C8.73622 10.6504 8.71354 10.4412 8.71354 10.2275C8.71455 9.06174 8.71405 7.89645 8.71405 6.73066C8.71405 4.99936 8.71253 3.26755 8.71455 1.53625C8.71505 1.2666 8.79015 1.01358 8.93027 0.783748C9.18127 0.369949 9.54467 0.11542 10.023 0.029233C10.0956 0.0171366 10.1691 0.0100804 10.2422 0Z" fill="white"/>
<path d="M0 17.4783C0 15.057 0 12.6357 0 10.2139C0.00705625 10.1685 0.0141125 10.1232 0.0206647 10.0778C0.054434 9.82529 0.141125 9.59193 0.291322 9.38629C0.615406 8.94275 1.05441 8.71645 1.60379 8.71544C2.91171 8.71342 4.21914 8.71443 5.52706 8.71494C5.86375 8.71494 6.17372 8.80566 6.44942 9.00223C6.76896 9.23004 6.9741 9.53699 7.0744 9.91601C7.11119 10.0561 7.11875 10.1993 7.11875 10.3429C7.11825 12.5178 7.11875 14.6931 7.11875 16.8679C7.11875 17.0564 7.11875 17.2449 7.11825 17.4339C7.11774 17.7288 7.03861 18.002 6.88085 18.2499C6.63943 18.63 6.2967 18.8679 5.85568 18.9616C5.77605 18.9788 5.6944 18.9873 5.61375 18.9999C4.2529 18.9999 2.89256 18.9999 1.53171 18.9999C1.48282 18.9934 1.43444 18.9863 1.38555 18.9803C1.05743 18.941 0.771652 18.8079 0.527707 18.5876C0.268642 18.3533 0.103324 18.0645 0.0378014 17.7202C0.0216728 17.6401 0.0120964 17.5589 0 17.4783Z" fill="white"/>
<path d="M10.2422 19C10.1736 18.9904 10.1051 18.9814 10.0365 18.9713C9.43018 18.8821 8.91457 18.4123 8.76589 17.8186C8.73161 17.681 8.71448 17.5424 8.71448 17.4013C8.71397 16.619 8.71145 15.8368 8.71498 15.054C8.71801 14.487 8.95943 14.0415 9.42766 13.7229C9.68018 13.5511 9.96444 13.4674 10.2704 13.4654C10.6585 13.4634 11.0466 13.4644 11.4347 13.4644C13.417 13.4644 15.3988 13.4649 17.3811 13.4639C17.6537 13.4639 17.9113 13.5183 18.1522 13.6473C18.5343 13.852 18.7938 14.1609 18.9203 14.5747C18.9581 14.6987 18.9677 14.8318 18.9904 14.9608C18.9934 14.9774 18.997 14.9936 19.0005 15.0102C19.0005 15.8328 19.0005 16.6553 19.0005 17.4779C18.997 17.4925 18.9914 17.5071 18.9904 17.5222C18.9723 17.8025 18.8856 18.06 18.7283 18.2919C18.4849 18.6502 18.1497 18.8745 17.7243 18.9622C17.6522 18.9768 17.5797 18.9874 17.5071 18.9995C15.0848 19 12.6635 19 10.2422 19Z" fill="white"/>
<path d="M5.61275 0C5.70246 0.0141125 5.79318 0.0246969 5.88189 0.0433456C6.08854 0.0866911 6.27805 0.171366 6.44992 0.294347C6.81634 0.557444 7.03105 0.915297 7.10162 1.35883C7.11472 1.4425 7.11674 1.52818 7.11674 1.61286C7.11774 2.91474 7.11623 4.21662 7.11774 5.51849C7.11825 5.96606 6.96351 6.34912 6.64699 6.66463C6.40557 6.90555 6.11122 7.04819 5.77554 7.10161C5.68583 7.11573 5.5941 7.11825 5.50287 7.11825C4.20704 7.11926 2.91171 7.11875 1.61588 7.11926C1.09271 7.11926 0.664296 6.91916 0.337692 6.5099C0.161286 6.28914 0.0579621 6.03511 0.0206647 5.75437C0.0136085 5.70095 0.00655224 5.64803 0 5.5946C0 4.22468 0 2.85476 0 1.48484C0.00352813 1.47324 0.00907233 1.46216 0.0100804 1.45006C0.0322572 1.17991 0.11794 0.931425 0.270658 0.708145C0.514098 0.351301 0.847254 0.126005 1.27063 0.0388094C1.35631 0.0211688 1.44401 0.0126005 1.5307 0C2.89155 0 4.2519 0 5.61275 0Z" fill="white"/>
</svg>
