<svg width="26" height="32" viewBox="0 0 26 32" fill="none" xmlns="http://www.w3.org/2000/svg">
<path d="M24.0243 32C16.4112 32 8.7978 32 1.18465 32C0.30868 31.6921 -0.00267454 31.0816 1.72849e-05 30.1517C0.0235708 21.9645 0.0125791 13.7774 0.0148223 5.59022C0.015271 4.27435 0.494192 3.80481 1.81408 3.80279C2.90674 3.80099 3.99962 3.80234 5.09654 3.80234C5.11135 3.61731 5.12436 3.51311 5.12727 3.40847C5.15599 2.34028 5.4716 2.03489 6.55282 2.03377C7.15938 2.03309 7.76616 2.03377 8.42498 2.03377C8.36083 1.19237 8.38506 0.437652 9.17847 0C11.4625 0 13.7465 0 16.0303 0C16.8495 0.439673 16.826 1.23975 16.7963 2.03377C17.3502 2.03377 17.8136 2.03377 18.2773 2.03377C19.8307 2.03377 19.9646 2.1539 20.1086 3.66738C20.1118 3.70062 20.1562 3.72981 20.2111 3.79762C21.2587 3.79762 22.3348 3.79583 23.4108 3.79807C24.7265 3.80077 25.2099 4.27367 25.2105 5.59292C25.2139 13.7828 25.2043 21.9726 25.2235 30.1625C25.2258 31.0867 24.907 31.7027 24.0243 32ZM5.12481 5.11978C3.80379 5.11978 2.58619 5.11978 1.29344 5.11978C1.29344 5.38273 1.29344 5.60931 1.29344 5.83588C1.29344 13.8564 1.30084 21.877 1.27931 29.8973C1.27751 30.5299 1.42153 30.7196 2.08125 30.7171C9.10176 30.6915 16.1223 30.6947 23.1425 30.7133C23.7361 30.7149 23.9308 30.5707 23.9292 29.9458C23.9084 21.9041 23.9158 13.8625 23.9142 5.82084C23.9142 5.59494 23.8949 5.36904 23.8837 5.12495C22.5952 5.12495 21.3619 5.12495 20.0862 5.12495C20.0862 5.35444 20.0869 5.54194 20.0862 5.72922C20.0797 7.26179 19.8967 7.44479 18.3697 7.44502C14.5 7.44524 10.6303 7.44547 6.76054 7.44412C6.52837 7.44412 6.29508 7.4403 6.06448 7.41762C5.46151 7.35879 5.16743 6.98738 5.13019 6.41208C5.10305 5.99531 5.12481 5.57518 5.12481 5.11978ZM6.45793 6.05684C10.5933 6.05684 14.6599 6.05684 18.7432 6.05684C18.7432 5.14022 18.7432 4.26447 18.7432 3.31843C17.9034 3.31843 17.1063 3.31416 16.3096 3.32C15.7649 3.32404 15.4791 3.08826 15.5005 2.51835C15.5144 2.14559 15.5031 1.77171 15.5031 1.34933C13.5386 1.34933 11.6525 1.34933 9.70428 1.34933C9.70428 1.72658 9.70764 2.06026 9.7036 2.39372C9.69463 3.15046 9.53648 3.31012 8.76057 3.31798C8.00686 3.32561 7.25292 3.31955 6.45816 3.31955C6.45793 4.26963 6.45793 5.14493 6.45793 6.05684Z" fill="white"/>
<path d="M16.3884 14.7155C16.4833 13.2357 16.5757 11.7927 16.6699 10.3203C17.2995 10.3203 17.8826 10.3203 18.5055 10.3203C18.6894 11.0387 18.8743 11.7601 19.0591 12.4816C19.0945 12.4803 19.13 12.4789 19.1654 12.4774C19.3056 11.9007 19.4606 11.3272 19.5806 10.7465C19.6522 10.4 19.8034 10.2494 20.1771 10.2797C20.6145 10.3149 21.0569 10.288 21.5587 10.288C21.6392 11.7801 21.7173 13.2253 21.7976 14.7159C21.3057 14.7159 20.8561 14.7159 20.3702 14.7159C20.3393 14.0712 20.3095 13.4481 20.2796 12.825C20.2361 12.8212 20.1924 12.8171 20.1488 12.8133C19.9842 13.4382 19.8198 14.0632 19.6576 14.6789C18.5988 14.8834 18.5744 14.8677 18.3229 13.8552C18.2383 13.5152 18.1508 13.1757 17.9642 12.8436C17.9306 13.4542 17.8969 14.065 17.8612 14.7153C17.374 14.7155 16.9395 14.7155 16.3884 14.7155Z" fill="white"/>
<path d="M14.8754 10.289C15.2599 11.7703 15.6386 13.2297 16.0278 14.7295C15.5192 14.7295 15.0605 14.7295 14.5558 14.7295C14.4979 13.7082 13.7536 14.178 13.2476 14.098C12.9427 14.8442 12.8234 14.8871 11.5656 14.6839C11.9178 13.2986 12.2623 11.9167 12.6325 10.5418C12.6619 10.4329 12.8673 10.3056 12.9954 10.3002C13.6062 10.2748 14.2184 10.289 14.8754 10.289ZM14.1271 12.9135C14.0224 12.4849 13.9331 12.1195 13.844 11.7542C13.8072 11.7539 13.7704 11.7539 13.7337 11.7537C13.645 12.1247 13.5567 12.4954 13.4568 12.9135C13.6987 12.9135 13.8752 12.9135 14.1271 12.9135Z" fill="white"/>
<path d="M11.2842 14.6963C9.85171 14.8739 9.85171 14.8739 9.14376 13.4251C8.89364 14.575 8.3158 15.12 7.16863 14.6426C7.38555 14.1288 7.66213 13.5841 7.83979 13.0088C7.93423 12.7025 7.93648 12.318 7.84024 12.0133C7.66505 11.4578 7.38532 10.9355 7.10223 10.2919C7.62378 10.2919 8.14823 10.148 8.50064 10.3328C8.84429 10.5131 9.01186 11.0296 9.30549 11.4719C9.48338 10.3359 10.1891 10.0584 11.2678 10.3712C11.0188 10.9274 10.734 11.498 10.5126 12.0921C10.4291 12.316 10.4226 12.6198 10.5025 12.8439C10.7196 13.4543 11.002 14.0413 11.2842 14.6963Z" fill="white"/>
<path d="M15.6457 24.6289C17.0591 24.6289 18.4723 24.6341 19.8858 24.626C20.3317 24.6235 20.711 24.701 20.7236 25.2433C20.7368 25.8182 20.3519 25.919 19.8741 25.9179C17.0475 25.912 14.2208 25.9127 11.3942 25.9174C10.9494 25.9181 10.5738 25.8417 10.5606 25.2956C10.5467 24.7138 10.9269 24.6218 11.4058 24.6253C12.8191 24.6359 14.2325 24.6289 15.6457 24.6289Z" fill="white"/>
<path d="M15.6554 19.8297C14.2419 19.8297 12.8283 19.8249 11.4149 19.8324C10.9465 19.8348 10.547 19.763 10.5615 19.1731C10.5761 18.5872 10.9873 18.5356 11.4481 18.5365C14.2541 18.5416 17.0601 18.5423 19.8661 18.536C20.3443 18.5349 20.7263 18.6411 20.7243 19.2074C20.7223 19.7511 20.3425 19.8344 19.8961 19.8321C18.4825 19.8254 17.0688 19.8297 15.6554 19.8297Z" fill="white"/>
<path d="M6.51288 13.6737C6.51288 14.0761 6.51288 14.3682 6.51288 14.7097C5.47473 14.7097 4.45453 14.7097 3.39777 14.7097C3.39777 13.2605 3.39777 11.8292 3.39777 10.3427C4.40585 10.3427 5.42718 10.3427 6.49606 10.3427C6.44716 10.6786 6.39758 11.0206 6.33881 11.4248C5.82983 11.4248 5.33184 11.4248 4.802 11.4248C4.802 11.6482 4.802 11.8079 4.802 12.0389C5.2567 12.0389 5.71027 12.0389 6.20175 12.0389C6.20175 12.3948 6.20175 12.6825 6.20175 13.0465C5.77375 13.0465 5.32242 13.0465 4.885 13.0465C4.77643 13.6662 4.77643 13.6676 5.39376 13.673C5.7484 13.6761 6.10305 13.6737 6.51288 13.6737Z" fill="white"/>
<path d="M6.55307 24.5572C6.75541 24.2859 6.89628 24.0749 7.05981 23.8829C7.32428 23.5723 7.64438 23.4358 7.98041 23.7564C8.33461 24.0944 8.12846 24.402 7.86534 24.6841C7.68028 24.8824 7.49544 25.0804 7.18431 25.4139C7.47457 25.6382 7.79759 25.8019 7.984 26.0633C8.10155 26.2281 8.11119 26.6689 7.99657 26.7547C7.81823 26.8883 7.42433 26.9332 7.24599 26.8198C6.97995 26.6507 6.82181 26.3112 6.53401 25.9346C6.19753 26.3354 6.03579 26.6422 5.78164 26.7944C5.57863 26.9161 5.26302 26.8494 4.99742 26.8665C4.98643 26.5811 4.87831 26.2472 4.99002 26.0229C5.12035 25.7612 5.44247 25.5953 5.82561 25.1056C5.5719 24.9533 5.23139 24.8568 5.0885 24.6335C4.94179 24.4041 4.85072 23.952 4.97925 23.7731C5.2269 23.4284 5.60936 23.5528 5.8947 23.8552C6.06742 24.038 6.23925 24.2224 6.55307 24.5572Z" fill="white"/>
<path d="M6.01629 19.4371C6.46515 18.8746 6.85838 18.3801 7.25318 17.8872C7.55781 17.507 7.94363 17.3436 8.34315 17.6804C8.71372 17.993 8.63252 18.401 8.3492 18.7513C7.75296 19.4889 7.15403 20.2248 6.53738 20.9454C6.19484 21.3457 5.76124 21.3417 5.40008 20.9449C5.10264 20.6182 4.83121 20.2668 4.56023 19.9169C4.26637 19.5379 4.19011 19.1278 4.60689 18.8049C4.99855 18.5013 5.35499 18.6628 5.6428 19.0234C5.74531 19.1519 5.86285 19.2682 6.01629 19.4371Z" fill="white"/>
</svg>
