<svg width="25" height="25" viewBox="0 0 25 25" fill="none" xmlns="http://www.w3.org/2000/svg">
<path d="M0.00314499 4.52545C0.136807 4.08358 0.339659 3.69517 0.732784 3.41527C1.2234 3.06617 1.76591 3.12121 2.36504 3.14008C2.36504 3.42785 2.35717 3.69832 2.36661 3.96879C2.39334 4.81636 3.07738 5.4658 3.9281 5.45951C4.76467 5.45322 5.4487 4.77233 5.46128 3.92947C5.466 3.66844 5.46128 3.40741 5.46128 3.13379C8.60156 3.13379 11.7072 3.13379 14.8617 3.13379C14.8617 3.42156 14.8522 3.6936 14.8632 3.9625C14.901 4.8258 15.5662 5.45951 16.4216 5.45794C17.255 5.45637 17.9343 4.78177 17.9563 3.92947C17.9626 3.67945 17.9579 3.43099 17.9579 3.18883C19.2898 2.8586 20.3214 3.64957 20.323 4.97519C20.3245 6.93766 20.323 8.90014 20.323 10.8941C19.804 10.8941 19.2993 10.8941 18.7568 10.8941C18.7568 9.88767 18.7568 8.87655 18.7568 7.84499C13.0187 7.84499 7.31526 7.84499 1.57564 7.84499C1.57564 7.95821 1.57564 8.062 1.57564 8.16578C1.57564 11.5529 1.58036 14.9417 1.56935 18.3288C1.56778 18.6528 1.6464 18.7581 1.98764 18.7566C4.82442 18.7424 7.66121 18.7487 10.498 18.7487C10.6269 18.7487 10.7559 18.7487 10.9053 18.7487C10.9053 19.2771 10.9053 19.774 10.9053 20.3228C10.7653 20.3228 10.6269 20.3228 10.4886 20.3228C7.68794 20.3228 4.88575 20.3007 2.08513 20.3338C1.04099 20.3463 0.341232 19.9579 0 18.9625C0.00314499 14.1507 0.00314499 9.33729 0.00314499 4.52545Z" fill="#334249"/>
<path d="M18.0326 24.9962C17.3973 24.8059 16.7322 24.6817 16.1315 24.4128C13.6674 23.3058 12.238 20.7835 12.5273 18.1307C12.8371 15.2845 14.8562 13.1191 17.564 12.5939C20.9417 11.9382 24.2754 14.201 24.9076 17.5772C24.9406 17.7517 24.9689 17.9263 25.0004 18.1008C25.0004 18.5552 25.0004 19.0113 25.0004 19.4657C24.9783 19.5208 24.9469 19.5742 24.9375 19.6308C24.5239 22.128 23.1071 23.798 20.7499 24.6707C20.319 24.8311 19.8504 24.8908 19.3991 24.9978C18.9431 24.9962 18.4871 24.9962 18.0326 24.9962ZM14.0794 18.7282C14.0778 21.3244 16.1488 23.4158 18.7214 23.419C21.3207 23.4206 23.42 21.3527 23.4216 18.7848C23.4247 16.1824 21.3585 14.0783 18.7953 14.0768C16.1739 14.0721 14.0809 16.1367 14.0794 18.7282Z" fill="#334249"/>
<path d="M4.16783 -0.00012207C4.55623 0.2216 4.69933 0.543962 4.68518 0.999986C4.6553 1.95292 4.68046 2.909 4.67889 3.8635C4.67731 4.36356 4.39426 4.66862 3.93352 4.67649C3.4429 4.68592 3.13469 4.39186 3.13155 3.8808C3.12369 2.91372 3.14256 1.9482 3.12369 0.981116C3.11425 0.532955 3.24949 0.198013 3.6662 -0.00012207C3.83288 -0.00012207 4.00114 -0.00012207 4.16783 -0.00012207Z" fill="#334249"/>
<path d="M16.6674 -0.00012207C17.0558 0.223173 17.202 0.545535 17.1879 1.00313C17.1564 1.95921 17.1769 2.91843 17.1737 3.87608C17.1722 4.37614 16.886 4.67491 16.4158 4.67806C15.9409 4.6812 15.6343 4.38715 15.6295 3.89653C15.6217 2.87912 15.6343 1.86171 15.6232 0.844309C15.6185 0.432315 15.8261 0.180715 16.1642 0.00145043C16.3324 -0.00012207 16.5007 -0.00012207 16.6674 -0.00012207Z" fill="#334249"/>
<path d="M3.13892 12.4792C3.13892 11.4476 3.13892 10.4333 3.13892 9.39392C4.17205 9.39392 5.1926 9.39392 6.23359 9.39392C6.23359 10.416 6.23359 11.4397 6.23359 12.4792C5.1926 12.4792 4.1689 12.4792 3.13892 12.4792Z" fill="#334249"/>
<path d="M12.5191 12.4761C12.5191 11.4288 12.5191 10.4161 12.5191 9.3877C13.5475 9.3877 14.5618 9.3877 15.6043 9.3877C15.6043 10.4114 15.6043 11.4335 15.6043 12.4761C14.5917 12.4761 13.5695 12.4761 12.5191 12.4761Z" fill="#334249"/>
<path d="M10.9137 9.39856C10.9137 10.4175 10.9137 11.4302 10.9137 12.4696C9.90413 12.4696 8.89458 12.4696 7.85516 12.4696C7.85516 11.4617 7.85516 10.4411 7.85516 9.39856C8.8537 9.39856 9.86324 9.39856 10.9137 9.39856Z" fill="#334249"/>
<path d="M3.13629 17.148C3.13629 16.1275 3.13629 15.1242 3.13629 14.0958C4.15999 14.0958 5.18054 14.0958 6.22625 14.0958C6.22625 15.1022 6.22625 16.1102 6.22625 17.148C5.21199 17.148 4.19144 17.148 3.13629 17.148Z" fill="#334249"/>
<path d="M7.83862 17.1495C7.83862 16.1211 7.83862 15.1194 7.83862 14.0941C8.86232 14.0941 9.87186 14.0941 10.905 14.0941C10.905 15.1052 10.905 16.1148 10.905 17.1495C9.89388 17.1495 8.88433 17.1495 7.83862 17.1495Z" fill="#334249"/>
<path d="M18.748 18.7486C19.5138 18.7486 20.2403 18.7486 20.9684 18.7486C21.5502 18.7486 21.8804 19.0348 21.8725 19.527C21.8647 20.0239 21.5313 20.3211 20.9715 20.3211C20.0139 20.3227 19.0562 20.3227 18.0986 20.3211C17.4931 20.3195 17.1755 20.0003 17.1755 19.3933C17.1739 18.4121 17.1739 17.4309 17.1755 16.4481C17.1755 16.0754 17.3453 15.8018 17.6944 15.6681C18.0136 15.5454 18.4209 15.6539 18.5923 15.9307C18.6867 16.0832 18.7386 16.2845 18.7417 16.4654C18.7574 17.2076 18.748 17.9498 18.748 18.7486Z" fill="#334249"/>
</svg>
