<svg width="16" height="24" viewBox="0 0 16 24" fill="none" xmlns="http://www.w3.org/2000/svg">
<path d="M5.6271 1.62996C5.64706 1.33518 5.63938 1.06496 5.69005 0.805491C5.77756 0.35564 6.22434 0.00712124 6.68647 0.00405059C7.56314 -0.00055539 8.44135 -0.00209072 9.31802 0.00405059C9.86613 0.00712124 10.3344 0.498426 10.3513 1.07571C10.3559 1.25381 10.3513 1.4319 10.3513 1.62996C11.0176 1.62996 11.6655 1.62689 12.3134 1.6315C12.7833 1.63457 13.2561 1.61614 13.7229 1.66067C14.6963 1.75586 15.3764 2.28248 15.7879 3.16375C15.9414 3.49231 15.9982 3.84237 15.9982 4.20163C15.9998 9.70117 16.0013 15.2007 15.9982 20.7003C15.9982 21.9531 15.1738 22.9618 13.9501 23.2197C13.7643 23.2596 13.5709 23.2781 13.3805 23.2781C9.78937 23.2811 6.1967 23.2811 2.60557 23.2796C1.47864 23.2796 0.519066 22.6225 0.141375 21.5677C0.0553971 21.3267 0.00626664 21.058 0.00626664 20.8016C-0.00140999 15.2283 0.000125333 9.65204 0.000125333 4.07574C0.000125333 2.88893 1.04875 1.71901 2.22788 1.66374C3.29494 1.61461 4.36659 1.63764 5.43518 1.62996C5.49813 1.62996 5.55954 1.62996 5.6271 1.62996ZM3.57437 3.0747C3.19668 3.0747 2.85123 3.06396 2.50578 3.07624C1.907 3.09773 1.45715 3.57215 1.45715 4.17093C1.45715 9.69657 1.45715 15.2207 1.45715 20.7463C1.45715 21.3343 1.93771 21.8226 2.5242 21.8226C6.16753 21.8241 9.80933 21.8241 13.4527 21.8226C13.7167 21.8226 13.947 21.7289 14.1528 21.5616C14.4767 21.299 14.5596 20.9459 14.5596 20.5544C14.5596 15.1516 14.5596 9.74723 14.5596 4.34442C14.5596 4.31218 14.5612 4.27994 14.5596 4.24769C14.5397 3.62128 14.1958 3.17143 13.6031 3.09313C13.2162 3.04246 12.8155 3.08392 12.4086 3.08392C12.4086 3.16682 12.4086 3.23591 12.4086 3.305C12.4086 4.09263 12.4086 4.88025 12.4086 5.66787C12.4086 6.38026 11.8513 6.9514 11.142 6.95294C9.05548 6.95601 6.96744 6.95601 4.88093 6.94987C4.71358 6.94987 4.53548 6.91609 4.38041 6.85161C3.82155 6.62131 3.58511 6.16685 3.57744 5.58496C3.56822 4.82344 3.5759 4.06192 3.5759 3.29886C3.57437 3.23284 3.57437 3.16375 3.57437 3.0747ZM10.9792 3.19753C8.98793 3.19753 7.01196 3.19753 5.02525 3.19753C5.02525 3.97594 5.02525 4.74821 5.02525 5.5128C7.01503 5.5128 8.99253 5.5128 10.9792 5.5128C10.9792 4.73746 10.9792 3.97748 10.9792 3.19753ZM7.99918 0.499961C7.68904 0.498426 7.45414 0.73026 7.4526 1.03579C7.45107 1.36896 7.6829 1.60079 8.01606 1.59618C8.30471 1.59158 8.55036 1.34286 8.54882 1.05421C8.54575 0.731795 8.31852 0.501496 7.99918 0.499961Z" fill="#334249"/>
<path d="M5.20397 13.6915C5.29916 13.5795 5.38207 13.4751 5.47111 13.3783C5.63386 13.2018 5.82424 13.1741 5.97777 13.3C6.15587 13.4444 6.17737 13.6424 6.0223 13.8389C5.81196 14.103 5.58626 14.3548 5.38207 14.622C5.31912 14.7049 5.27459 14.8215 5.26845 14.9259C5.2531 15.2315 5.26538 15.5401 5.26231 15.8471C5.25924 16.1588 5.01819 16.4029 4.70652 16.4045C4.15073 16.4075 3.59341 16.406 3.03762 16.4045C2.63844 16.4045 2.40814 16.1818 2.40507 15.7796C2.40046 15.3251 2.402 14.8707 2.40507 14.4178C2.40507 14.2458 2.402 14.0723 2.42042 13.9019C2.4542 13.5825 2.67375 13.3768 2.98849 13.3737C3.5581 13.3676 4.12617 13.3707 4.69577 13.3722C4.91686 13.3753 5.07654 13.495 5.20397 13.6915ZM4.88001 15.2069C4.78789 15.3175 4.72802 15.3896 4.6666 15.4633C4.60519 15.537 4.54531 15.6122 4.48236 15.6829C4.32116 15.8656 4.11235 15.884 3.92811 15.7197C3.65636 15.4771 3.39075 15.2284 3.12667 14.9781C2.95779 14.8169 2.93783 14.5744 3.07293 14.4346C3.21726 14.2842 3.46137 14.2949 3.63947 14.4592C3.7147 14.5283 3.78226 14.6066 3.85902 14.6742C4.04787 14.8446 4.24285 14.8354 4.4102 14.6434C4.54071 14.4945 4.67735 14.3487 4.78482 14.1859C4.8401 14.1015 4.88616 13.9633 4.85238 13.8835C4.82474 13.8159 4.67889 13.7637 4.58523 13.7622C4.09239 13.7499 3.59955 13.756 3.10671 13.756C2.85799 13.756 2.7889 13.8205 2.78736 14.0723C2.78429 14.6158 2.78583 15.1609 2.78736 15.7044C2.78736 15.755 2.77969 15.8195 2.80732 15.8533C2.85952 15.9193 2.93322 16.0145 3.00077 16.016C3.5581 16.0283 4.11389 16.0252 4.67121 16.0222C4.79864 16.0222 4.87541 15.9469 4.88001 15.8226C4.88462 15.6322 4.88001 15.4418 4.88001 15.2069Z" fill="#334249"/>
<path d="M5.23032 9.70583C5.32091 9.59682 5.39153 9.50624 5.4683 9.4218C5.63258 9.24523 5.82142 9.2176 5.97649 9.34349C6.15459 9.48781 6.17608 9.68741 6.01948 9.88393C5.79993 10.1572 5.56809 10.4198 5.35008 10.693C5.30402 10.7514 5.2687 10.8358 5.26563 10.9095C5.25642 11.1966 5.26256 11.4853 5.26103 11.7739C5.26103 12.1148 5.01691 12.3681 4.6776 12.3712C4.12028 12.3758 3.56449 12.3727 3.00717 12.3712C2.75231 12.3712 2.42682 12.213 2.4176 11.8445C2.40225 11.1797 2.39764 10.5149 2.41453 9.85015C2.42375 9.53541 2.67554 9.33889 2.99489 9.33889C3.52611 9.33735 4.05733 9.34656 4.58856 9.33582C4.87106 9.32968 5.08754 9.41412 5.23032 9.70583ZM4.87873 11.2504C4.78815 11.3578 4.72827 11.43 4.66839 11.5022C4.60698 11.5759 4.5471 11.6496 4.48415 11.7217C4.32141 11.9075 4.11721 11.9305 3.93297 11.7678C3.65661 11.5221 3.38639 11.2688 3.11925 11.0124C2.95497 10.8543 2.93654 10.6255 3.06398 10.4827C3.19601 10.3353 3.44474 10.3307 3.61516 10.4796C3.70114 10.5549 3.77637 10.6439 3.86235 10.7207C4.04505 10.8834 4.24004 10.8773 4.39818 10.6961C4.54557 10.5288 4.6991 10.3645 4.81732 10.1772C4.87259 10.0897 4.88334 9.94227 4.8511 9.84401C4.83114 9.7826 4.69142 9.72733 4.60391 9.72579C4.09265 9.71504 3.58138 9.71965 3.07012 9.72118C2.8475 9.72118 2.78915 9.76571 2.78762 9.98372C2.78148 10.5656 2.78455 11.1475 2.78608 11.7294C2.78608 11.8998 2.8782 11.9889 3.04862 11.9889C3.57985 11.9904 4.10953 11.9919 4.64076 11.9873C4.79736 11.9858 4.88641 11.9029 4.8818 11.734C4.87566 11.5881 4.87873 11.4423 4.87873 11.2504Z" fill="#334249"/>
<path d="M5.20536 17.6665C5.30669 17.5483 5.39574 17.4392 5.49093 17.3348C5.6245 17.1859 5.86555 17.1675 6.00833 17.2934C6.14651 17.4131 6.16493 17.6434 6.04211 17.7954C5.81641 18.0718 5.57997 18.3405 5.36042 18.6199C5.30669 18.6875 5.27137 18.7888 5.2683 18.8748C5.25756 19.1941 5.26523 19.515 5.2637 19.8344C5.26216 20.1691 5.02419 20.4162 4.68795 20.4193C4.12449 20.4255 3.56102 20.4255 2.99909 20.4193C2.65518 20.4162 2.4172 20.1982 2.40953 19.8482C2.39417 19.2218 2.39417 18.5938 2.40953 17.9674C2.4172 17.6005 2.65978 17.3901 3.03287 17.3886C3.51342 17.3855 3.99245 17.3886 4.473 17.3886C4.89829 17.387 4.89829 17.387 5.20536 17.6665ZM4.87833 19.1864C4.7248 19.3707 4.60811 19.5181 4.48375 19.6593C4.33943 19.8221 4.11527 19.8635 3.97095 19.7376C3.67003 19.472 3.37525 19.1972 3.08814 18.9162C2.93307 18.7642 2.94535 18.5508 3.09275 18.405C3.24167 18.256 3.41056 18.2545 3.58405 18.4034C3.67156 18.4787 3.75447 18.557 3.84198 18.6307C4.08303 18.8349 4.25499 18.8149 4.45765 18.5692C4.57127 18.4311 4.69563 18.3021 4.79542 18.1547C4.84302 18.0856 4.87987 17.9659 4.85069 17.9014C4.82152 17.8369 4.70484 17.7801 4.625 17.7786C4.09992 17.7678 3.57637 17.7739 3.05129 17.7724C2.8778 17.7724 2.78722 17.8523 2.78568 18.0242C2.78261 18.6199 2.78261 19.2141 2.78414 19.8098C2.78414 19.9541 2.86705 20.0386 3.01137 20.0386C3.56102 20.0416 4.1122 20.0462 4.66185 20.0324C4.73401 20.0309 4.85684 19.928 4.86605 19.8605C4.89675 19.6532 4.87833 19.4428 4.87833 19.1864Z" fill="#334249"/>
<path d="M10.4203 10.607C11.3737 10.607 12.3256 10.6116 13.279 10.6039C13.5938 10.6024 13.6905 10.7774 13.7089 10.9616C13.7289 11.1628 13.5308 11.3332 13.2852 11.3332C11.366 11.3347 9.44841 11.3347 7.52925 11.3332C7.25289 11.3332 7.10243 11.1904 7.10704 10.9509C7.11164 10.7344 7.27132 10.607 7.54153 10.607C8.50111 10.607 9.46069 10.607 10.4203 10.607Z" fill="#334249"/>
<path d="M10.3971 14.1782C11.3567 14.1782 12.3163 14.1782 13.2774 14.1782C13.5446 14.1782 13.7042 14.3072 13.7119 14.5267C13.718 14.7263 13.5323 14.8875 13.2805 14.8875C11.3536 14.8891 9.42835 14.8891 7.50151 14.8875C7.24665 14.8875 7.10693 14.7509 7.10693 14.5221C7.10847 14.3103 7.25586 14.1782 7.49844 14.1782C8.46416 14.1782 9.43142 14.1782 10.3971 14.1782Z" fill="#334249"/>
<path d="M10.391 18.4434C9.43143 18.4434 8.47185 18.4434 7.51074 18.4434C7.25434 18.4434 7.10541 18.3129 7.10695 18.0933C7.10848 17.8692 7.2528 17.7341 7.50767 17.7341C9.4345 17.7325 11.3598 17.7341 13.2866 17.7325C13.4601 17.7325 13.5952 17.7909 13.6766 17.9536C13.7457 18.0949 13.7135 18.23 13.6121 18.3221C13.5354 18.3897 13.4125 18.4373 13.3097 18.4388C12.3363 18.4465 11.3629 18.4434 10.391 18.4434Z" fill="#334249"/>
</svg>
