<svg width="19" height="32" viewBox="0 0 19 32" fill="none" xmlns="http://www.w3.org/2000/svg">
<path d="M0.283059 15.2321C0.182919 15.0552 0.224356 14.9094 0.223493 14.7715C0.22004 12.596 0.224356 10.4205 0.22004 8.24495C0.215723 5.65133 0.211407 3.05857 0.189825 0.465816C0.187235 0.111036 0.282196 4.9605e-06 0.645637 0.000872393C6.4253 0.0112816 12.2058 0.0112816 17.9855 4.96049e-06C18.3394 -0.000862472 18.4128 0.111904 18.4102 0.441528C18.3964 2.45831 18.399 4.47596 18.4085 6.49273C18.4094 6.76337 18.3265 6.9412 18.1159 7.11468C13.0372 11.3105 7.96626 15.5158 2.88585 19.7089C2.61305 19.9336 2.50169 20.1635 2.50687 20.5139C2.53622 22.3425 2.54572 24.1719 2.55953 26.0004C2.56039 26.0958 2.6096 26.2251 2.5086 26.2797C2.37565 26.3517 2.31004 26.2034 2.23062 26.1357C1.63841 25.6335 1.05656 25.1191 0.458305 24.6238C0.26493 24.4633 0.176876 24.2916 0.169969 24.0383C0.124215 22.5428 0.0741451 21.0465 0.00162947 19.5519C-0.0147729 19.2128 0.092274 18.989 0.340036 18.7695C5.297 14.3872 10.3144 10.0744 15.3827 5.82221C15.8428 5.4362 16.0966 5.06321 16.0008 4.43779C15.9274 3.95897 15.9551 3.45932 15.981 2.97096C16 2.61271 15.8886 2.50428 15.526 2.50775C13.7287 2.5251 11.9313 2.51556 10.1348 2.51556C7.73404 2.51556 5.33239 2.52423 2.93161 2.50602C2.57248 2.50341 2.45507 2.60924 2.45421 2.95448C2.45076 4.12118 2.43263 5.287 2.4145 6.4537C2.37997 8.67086 2.33853 10.8871 2.30918 13.1043C2.30573 13.3402 2.24098 13.5085 2.06055 13.6638C1.46403 14.1747 0.882176 14.7004 0.283059 15.2321Z" fill="#582F8A"/>
<path d="M18.4405 16.3095C18.4405 18.8224 18.437 21.2998 18.4448 23.7772C18.4457 24.08 18.2765 24.2465 18.0693 24.413C15.5053 26.481 12.9422 28.5516 10.3792 30.6213C10.0882 30.8563 9.793 31.0853 9.50898 31.3291C9.32942 31.4835 9.17144 31.5112 8.97806 31.349C7.87565 30.4252 6.76979 29.5049 5.66047 28.5889C5.49558 28.4527 5.46192 28.2818 5.46019 28.091C5.44551 25.7142 5.43429 23.3366 5.41616 20.9598C5.41357 20.6649 5.62162 20.5322 5.80723 20.3795C7.73062 18.8008 9.65573 17.2238 11.58 15.645C13.7382 13.8755 15.8955 12.1059 18.0537 10.3372C18.1521 10.2566 18.2514 10.0978 18.3706 10.1464C18.5346 10.2123 18.4327 10.4014 18.4353 10.5315C18.4517 11.3235 18.4362 12.1163 18.469 12.9074C18.4845 13.2908 18.3619 13.5493 18.065 13.7931C15.1661 16.1785 12.2775 18.577 9.38553 20.9711C9.20856 21.1177 9.03245 21.266 8.85288 21.4109C7.90932 22.1751 7.91881 22.1742 7.95852 23.3938C7.99219 24.4157 8.02586 25.4384 8.01032 26.4593C8.00255 26.9425 8.14586 27.2643 8.55074 27.5393C9.18266 27.9678 9.16971 27.999 9.7671 27.5124C11.6844 25.9493 13.5975 24.3801 15.5166 22.8178C15.7082 22.6617 15.8118 22.4986 15.8049 22.2358C15.7868 21.5158 15.7988 20.7959 15.7988 20.0525C15.6141 20.0577 15.514 20.1887 15.4 20.278C14.0075 21.3692 12.6013 22.444 11.2364 23.569C10.6666 24.0383 9.9881 24.0852 9.32251 24.2725C9.69372 23.6202 9.99155 22.9315 10.5898 22.4579C13.0027 20.5469 15.4181 18.6394 17.8371 16.7345C18.0252 16.5879 18.1867 16.3971 18.4405 16.3095Z" fill="#EC772D"/>
</svg>
