<svg width="26" height="28" viewBox="0 0 26 28" fill="none" xmlns="http://www.w3.org/2000/svg">
<path d="M21.5836 15.0336C21.5836 16.8138 21.5836 18.4182 21.5836 20.0227C21.5836 21.6535 21.5886 23.2831 21.5811 24.9139C21.5748 26.2863 20.6327 27.2259 19.2528 27.2272C13.6089 27.2309 7.96499 27.2322 2.3211 27.2272C0.938663 27.2259 0.00282257 26.2888 0.00282257 24.9064C-0.000940858 17.3808 -0.000940858 9.85642 0.00282257 2.33081C0.00282257 0.943359 0.933645 0.00500987 2.31357 0.00375539C6.09707 -0.002517 9.88058 -0.00126252 13.6641 0.0100278C13.8962 0.0112823 14.1885 0.0576979 14.3503 0.200708C16.0125 1.65716 17.6533 3.13869 19.2628 4.58009C18.8752 5.02041 18.5214 5.4231 18.1375 5.85966C16.8279 4.67292 15.5621 3.52633 14.2035 2.29443C14.2035 3.6317 14.1483 4.87113 14.2311 6.10052C14.2637 6.58474 14.704 6.91718 15.2723 6.91216C15.808 6.90714 16.3436 6.91091 17.0248 6.91091C16.4039 7.53313 15.9372 8.13653 15.3363 8.54047C15.049 8.73366 14.4945 8.60822 14.0831 8.52166C12.9616 8.28707 12.4284 7.58205 12.4272 6.43295C12.4259 4.86611 12.4272 3.29927 12.4272 1.67597C12.2264 1.66217 12.0483 1.63959 11.8689 1.63959C8.96355 1.63708 6.05818 1.63583 3.15281 1.63959C2.11913 1.64085 1.72146 2.03852 1.72146 3.08224C1.71895 10.0847 1.71895 17.0872 1.72146 24.0897C1.72146 25.2338 2.08525 25.5976 3.20676 25.5989C8.18201 25.5989 13.156 25.6001 18.1313 25.5989C19.2252 25.5989 19.594 25.2325 19.5952 24.1374C19.5978 21.9634 19.5789 19.7894 19.6141 17.6166C19.6191 17.2879 19.8035 16.9091 20.0193 16.6469C20.4583 16.1163 20.9727 15.6534 21.5836 15.0336Z" fill="white"/>
<path d="M10.2556 20.3275C10.3271 20.0867 10.3735 19.8922 10.4413 19.7078C10.7373 18.9087 11.1036 18.1297 11.3294 17.3118C11.9655 15.0136 13.2588 13.2021 15.0176 11.6001C17.1452 9.6607 19.1135 7.5469 21.1533 5.51089C22.3049 4.36053 23.5405 4.35677 24.7135 5.49458C24.9079 5.684 25.1061 5.86967 25.293 6.06787C26.2264 7.0564 26.2452 8.34977 25.2918 9.3107C22.468 12.1584 19.6291 14.9897 16.7914 17.8223C16.6472 17.9653 16.4703 18.1008 16.2834 18.1723C14.3778 18.8911 12.4673 19.5974 10.5567 20.3037C10.4864 20.3275 10.4024 20.3162 10.2556 20.3275ZM22.6611 9.58794C22.1154 9.01213 21.5886 8.4564 21.0918 7.93203C18.8814 10.1387 16.6823 12.334 14.4794 14.5331C15.0076 15.0524 15.5708 15.6044 16.1002 16.125C18.288 13.9447 20.4884 11.7519 22.6611 9.58794ZM12.3606 18.2488C13.442 17.8336 14.3716 17.4773 15.2673 17.1336C14.6626 16.4963 14.1232 15.9293 13.5072 15.2808C13.1321 16.2555 12.7771 17.1738 12.3606 18.2488ZM21.7404 6.96984C22.4291 7.68991 22.9572 8.24188 23.6246 8.93937C23.8805 8.415 24.3635 7.88561 24.2581 7.52934C24.1176 7.05013 23.5819 6.5107 23.1052 6.36644C22.7502 6.25981 22.2171 6.73902 21.7404 6.96984Z" fill="white"/>
<path d="M3.97095 16.9355C3.97095 16.3722 3.97095 15.8993 3.97095 15.3787C6.22022 15.3787 8.4419 15.3787 10.7351 15.3787C10.5695 15.834 10.4265 16.2844 10.2346 16.7134C10.1856 16.8226 9.9824 16.9254 9.85068 16.9254C7.91126 16.9392 5.97184 16.9355 3.97095 16.9355Z" fill="white"/>
<path d="M10.8566 11.0795C10.8566 11.5599 10.8566 12.0115 10.8566 12.5121C8.57849 12.5121 6.31416 12.5121 3.99463 12.5121C3.99463 12.0617 3.99463 11.5963 3.99463 11.0795C6.25269 11.0795 8.51702 11.0795 10.8566 11.0795Z" fill="white"/>
<path d="M9.44874 19.7393C9.29318 20.1871 9.1715 20.6036 8.99587 20.9962C8.94569 21.1079 8.74247 21.2145 8.60824 21.2158C7.08656 21.2308 5.56362 21.2258 3.99176 21.2258C3.99176 20.719 3.99176 20.2536 3.99176 19.7393C5.78943 19.7393 7.58709 19.7393 9.44874 19.7393Z" fill="white"/>
<path d="M16.3288 19.344C16.3288 20.0227 16.3288 20.6185 16.3288 21.2533C14.6265 21.2533 12.9568 21.2533 11.2883 21.2533C11.2783 21.227 11.2695 21.1994 11.2595 21.173C12.9329 20.5684 14.6077 19.965 16.3288 19.344Z" fill="white"/>
</svg>
