<svg width="26" height="25" viewBox="0 0 26 25" fill="none" xmlns="http://www.w3.org/2000/svg">
<path d="M14.456 20.3556C14.1415 20.3742 13.8386 20.3943 13.5355 20.4097C12.0113 20.4861 10.486 20.5367 8.95981 20.5132C7.90003 20.4969 6.83968 20.4674 5.78127 20.4124C4.83597 20.3631 3.89126 20.2879 2.94945 20.1921C2.05635 20.1014 1.16732 19.9703 0.276932 19.8542C0.0893087 19.8298 -0.0113909 19.6958 0.00102676 19.4881C0.017325 19.2142 0.0367276 18.94 0.0644734 18.667C0.123069 18.0922 0.176427 17.5163 0.252485 16.9436C0.396646 15.8579 0.58136 14.7801 0.986875 13.7538C1.03189 13.6398 1.08874 13.5307 1.1355 13.4175C1.31963 12.9723 1.66461 12.6729 2.03869 12.3922C3.31015 11.4379 4.73178 10.8184 6.27758 10.4714C6.31561 10.4629 6.36955 10.4739 6.40157 10.4966C7.1507 11.0249 7.97085 11.3906 8.86861 11.5791C9.62532 11.7378 10.3863 11.7644 11.1527 11.6562C12.2194 11.5056 13.188 11.1132 14.0672 10.4941C14.0988 10.4718 14.1523 10.4609 14.1902 10.4695C15.6993 10.8101 17.0924 11.4106 18.3423 12.3296C18.3988 12.3711 18.4199 12.4096 18.4025 12.4825C18.3598 12.6613 18.3268 12.8426 18.2927 13.0233C18.282 13.0795 18.2587 13.11 18.1988 13.1268C17.7835 13.2432 17.387 13.407 17.0121 13.6203C16.9576 13.6513 16.9207 13.6418 16.8734 13.6098C16.6564 13.4634 16.4386 13.3182 16.2189 13.1761C15.9048 12.9731 15.5775 13.0082 15.3111 13.2724C15.0381 13.5433 14.766 13.8153 14.4944 14.0877C14.2428 14.3403 14.2059 14.682 14.3997 14.9809C14.5456 15.2058 14.6937 15.4294 14.8442 15.6512C14.8761 15.6981 14.8768 15.7318 14.8489 15.7811C14.6378 16.1533 14.4744 16.5461 14.3582 16.9578C14.3398 17.0233 14.3081 17.0499 14.2418 17.0623C13.9878 17.1094 13.7354 17.1637 13.4822 17.2149C13.1298 17.2862 12.9077 17.5557 12.9071 17.915C12.9065 18.3027 12.9063 18.6905 12.9071 19.0783C12.9079 19.4354 13.1224 19.7014 13.4723 19.7757C13.728 19.8299 13.9845 19.8813 14.2414 19.9312C14.3039 19.9434 14.3425 19.9657 14.3584 20.0345C14.3825 20.1378 14.4197 20.2379 14.456 20.3556Z" fill="white"/>
<path d="M5.0957 5.13868C5.0957 2.30101 7.39453 0.000969722 10.232 3.06045e-07C13.0636 -0.00096911 15.3711 2.3012 15.3708 5.12705C15.3702 7.99245 13.0748 10.2746 10.1951 10.2727C7.3889 10.2708 5.0959 7.9622 5.0957 5.13868Z" fill="white"/>
<path d="M15.8095 13.5841C15.8599 13.6091 15.9053 13.6258 15.9447 13.6518C16.2527 13.8538 16.5602 14.0564 16.8658 14.2621C16.9156 14.2957 16.9504 14.2984 17.0022 14.2648C17.5113 13.9345 18.0645 13.7076 18.657 13.5773C18.7201 13.5634 18.7484 13.5389 18.7608 13.475C18.8305 13.1138 18.9044 12.7535 18.9776 12.3929C19.0047 12.2587 19.0383 12.2318 19.1728 12.2316C19.5445 12.2314 19.9165 12.2314 20.2882 12.2316C20.4233 12.2316 20.4557 12.2574 20.4834 12.3929C20.5564 12.7502 20.6301 13.1074 20.6992 13.4653C20.7118 13.5306 20.7335 13.563 20.8039 13.5781C21.4004 13.7068 21.9555 13.9374 22.4669 14.2701C22.5201 14.3046 22.5515 14.2902 22.5946 14.2614C22.901 14.0568 23.2079 13.8534 23.5156 13.6508C23.6357 13.5717 23.6744 13.5769 23.7751 13.6776C24.0356 13.9382 24.2964 14.1983 24.5568 14.4591C24.6559 14.5584 24.6606 14.5927 24.583 14.7102C24.3802 15.0175 24.1773 15.3248 23.971 15.63C23.9349 15.6833 23.9332 15.7205 23.9689 15.7758C24.3005 16.2878 24.5267 16.8439 24.6612 17.4385C24.6686 17.4715 24.7112 17.5137 24.7442 17.5207C25.1008 17.5973 25.459 17.6677 25.8166 17.7398C25.9807 17.773 25.9998 17.7964 25.9998 17.9655C25.9998 18.3306 25.9998 18.6957 25.9996 19.0607C25.9996 19.1854 25.9703 19.2228 25.8515 19.2469C25.4939 19.3196 25.1365 19.3933 24.7784 19.4623C24.7029 19.4768 24.6668 19.504 24.649 19.586C24.5221 20.1686 24.2968 20.712 23.9726 21.213C23.9355 21.2702 23.9334 21.3086 23.9726 21.3666C24.1759 21.6658 24.3746 21.9682 24.5739 22.2701C24.6633 22.4056 24.6588 22.4355 24.5424 22.552C24.2886 22.8056 24.0351 23.0594 23.7813 23.313C23.673 23.4212 23.6369 23.4247 23.5059 23.3378C23.2042 23.1381 22.9014 22.94 22.6018 22.737C22.5442 22.698 22.5053 22.6995 22.4477 22.7368C21.9405 23.0637 21.3907 23.2899 20.8008 23.4173C20.7352 23.4315 20.712 23.4623 20.7001 23.5235C20.6295 23.8846 20.556 24.245 20.4826 24.6054C20.4564 24.734 20.4219 24.7621 20.2933 24.7621C19.9182 24.7623 19.5431 24.7623 19.1681 24.7619C19.0373 24.7617 19.0053 24.7363 18.9785 24.6062C18.9052 24.2491 18.8305 23.8921 18.763 23.5338C18.7484 23.4569 18.7152 23.4303 18.6417 23.4138C18.0724 23.2874 17.5375 23.0733 17.047 22.7567C16.9585 22.6995 16.9005 22.7056 16.8179 22.7626C16.5359 22.957 16.2484 23.1431 15.963 23.3322C15.8208 23.4264 15.7901 23.4237 15.6725 23.3064C15.4185 23.053 15.1648 22.7994 14.911 22.5458C14.8025 22.4374 14.7992 22.4017 14.8863 22.2705C15.0862 21.9688 15.2845 21.6663 15.4876 21.3668C15.5264 21.3096 15.5258 21.2708 15.4884 21.213C15.1603 20.7066 14.935 20.1562 14.8066 19.5672C14.792 19.5001 14.761 19.478 14.701 19.466C14.343 19.3952 13.9857 19.3219 13.6279 19.2496C13.4843 19.2205 13.4602 19.1928 13.4602 19.0507C13.46 18.6823 13.46 18.3139 13.4602 17.9457C13.4602 17.8013 13.4845 17.7724 13.635 17.7418C13.9926 17.669 14.35 17.5956 14.7082 17.5262C14.7685 17.5145 14.7928 17.4901 14.8058 17.4294C14.9333 16.84 15.1595 16.2901 15.4868 15.7831C15.527 15.7209 15.5237 15.6794 15.4841 15.6209C15.2812 15.3213 15.0825 15.0191 14.8822 14.7178C14.7996 14.5933 14.8035 14.5576 14.9102 14.451C15.1731 14.1883 15.4356 13.925 15.6997 13.6634C15.7301 13.6338 15.7697 13.6126 15.8095 13.5841ZM19.7325 15.4026C18.0202 15.4039 16.6306 16.7877 16.6291 18.4932C16.6273 20.2021 18.022 21.5954 19.7335 21.5946C21.4398 21.5938 22.8325 20.2012 22.8315 18.4971C22.8303 16.79 21.4396 15.4014 19.7325 15.4026Z" fill="white"/>
</svg>
