<svg width="35" height="36" viewBox="0 0 35 36" fill="none" xmlns="http://www.w3.org/2000/svg">
<path d="M17.6338 0C18.2558 0.369409 18.8856 0.724609 19.4982 1.1098C20.3459 1.64497 20.668 2.99316 20.1975 3.99403C20.0618 4.28135 19.8897 4.48658 20.1123 4.87493C20.237 5.09279 20.0365 5.58533 19.8534 5.87265C19.5566 6.33836 19.154 6.73618 18.6694 7.3124C19.3324 7.62024 19.9228 7.92019 20.5322 8.1712C21.0374 8.37958 21.5883 8.48377 22.0793 8.71584C22.9507 9.12945 23.2917 9.88405 23.298 10.8549C19.3592 10.8549 15.452 10.8549 11.548 10.8549C11.4154 9.83038 11.7769 9.10577 12.7115 8.69531C13.3303 8.42378 14.0076 8.29117 14.6343 8.03701C15.1032 7.84599 15.5326 7.56025 16.0693 7.26662C15.621 6.7204 15.1995 6.33205 14.9437 5.85371C14.7574 5.50324 14.7211 5.0328 14.7401 4.62077C14.7811 3.73355 14.9232 2.84476 14.1212 2.15962C14.8127 1.14769 15.7173 0.435713 16.8444 0C17.1081 0 17.3717 0 17.6338 0Z" fill="white"/>
<path d="M16.2122 35.5201C14.9745 35.2106 13.7131 34.9723 12.5039 34.576C10.7815 34.0108 9.06867 32.9089 8.112 31.8575C9.72382 32.0501 11.1809 31.6428 12.6759 32.3154C16.0132 33.8135 19.3916 33.6856 22.721 32.1575C23.0636 31.9996 23.4661 31.916 23.845 31.9002C24.7859 31.8639 25.73 31.8891 26.8855 31.8891C26.5493 32.1859 26.3598 32.3769 26.1483 32.538C24.0566 34.1229 21.7296 35.1285 19.0995 35.3906C18.9764 35.4032 18.858 35.4759 18.738 35.5216C17.8966 35.5201 17.0536 35.5201 16.2122 35.5201Z" fill="white"/>
<path d="M11.9168 29.3475C7.93062 29.3475 3.96816 29.3475 0.00885306 29.3475C-0.0653444 28.315 0.324587 27.6062 1.2639 27.191C1.85905 26.929 2.51262 26.7995 3.11094 26.5453C3.62401 26.3275 4.09761 26.0133 4.63909 25.7134C4.1797 24.9903 3.79766 24.4031 3.42983 23.8063C3.17882 23.399 2.98465 23.0328 3.343 22.5166C3.53244 22.2435 3.44088 21.7572 3.42983 21.3689C3.40299 20.4596 3.79292 19.8076 4.58542 19.3845C4.67698 19.3356 4.81432 19.315 4.86011 19.2393C5.46158 18.2336 6.19566 18.783 6.86186 19.0972C7.74118 19.5124 8.47842 20.0602 8.49736 21.1968C8.50683 21.7462 8.70575 22.2892 8.74679 22.8402C8.76574 23.107 8.67101 23.4164 8.53525 23.6532C8.17216 24.2894 7.75854 24.8972 7.26758 25.6692C7.6954 25.9423 8.11374 26.2817 8.58892 26.4948C9.15882 26.7506 9.78082 26.8848 10.3728 27.0963C11.41 27.4657 11.8947 28.225 11.9168 29.3475Z" fill="white"/>
<path d="M34.9999 29.3441C30.9711 29.3441 27.0087 29.3441 23.0446 29.3441C23.1062 28.0844 23.5798 27.4245 24.7227 27.0187C25.3147 26.8088 25.9431 26.6935 26.513 26.441C26.9455 26.2499 27.3118 25.9105 27.697 25.6437C27.2739 24.9854 26.936 24.4581 26.5935 23.9309C26.2888 23.4604 25.9967 23.0326 26.4719 22.4469C26.6392 22.2401 26.513 21.7886 26.5114 21.4492C26.5066 20.5336 26.8445 19.8153 27.6906 19.389C27.7838 19.3417 27.9243 19.3227 27.9669 19.247C28.5321 18.2571 29.2409 18.786 29.896 19.078C30.8227 19.4901 31.5663 20.0552 31.5931 21.2187C31.6057 21.7697 31.7826 22.3143 31.8173 22.8653C31.8347 23.1336 31.7541 23.4462 31.62 23.6814C31.2569 24.3161 30.8401 24.9207 30.3239 25.7258C30.9048 26.0352 31.4668 26.3762 32.062 26.6383C32.5624 26.8577 33.1165 26.9493 33.6217 27.1608C34.5405 27.5429 34.9841 28.2627 34.9999 29.3441Z" fill="white"/>
<path d="M21.4984 17.8232C22.4424 18.1042 22.8182 18.6741 22.8324 19.4808C22.8561 20.6617 22.856 21.8441 22.8339 23.0265C22.8134 24.0369 22.3603 24.5073 21.0974 24.8862C21.1306 25.565 21.1653 26.2581 21.2127 27.1832C20.7722 26.8722 20.4344 26.7238 20.226 26.4696C19.0262 25.0141 17.5154 24.4363 15.6589 24.7426C15.4837 24.771 15.3005 24.7457 14.9027 24.7457C15.8168 23.8901 16.2951 22.7992 17.7112 23.0329C18.401 23.1465 19.1257 23.0581 19.8361 23.0518C20.9222 23.0407 21.4431 22.594 21.4889 21.5C21.5363 20.3018 21.4984 19.1004 21.4984 17.8232Z" fill="white"/>
<path d="M13.1943 24.7881C13.24 23.8788 13.2748 23.2047 13.3127 22.4501C11.7798 22.2101 11.5256 21.1287 11.6156 19.7869C11.6756 18.8712 11.6187 17.9477 11.6298 17.0274C11.6408 15.9854 12.2218 15.2955 13.2369 15.2734C15.2339 15.2308 17.2341 15.2356 19.2311 15.275C20.2256 15.2955 20.7892 15.8544 20.8319 16.8584C20.8887 18.1435 20.8887 19.4348 20.8413 20.7214C20.8034 21.7286 20.1072 22.4974 19.1206 22.3775C16.9846 22.1154 15.2907 22.7769 13.9062 24.3745C13.7894 24.5102 13.5779 24.5687 13.1943 24.7881ZM13.862 23.5141C13.9141 23.6025 13.9646 23.6909 14.0167 23.7793C15.1992 21.6308 17.1094 21.6702 19.0622 21.7776C19.8326 21.8202 20.2793 21.3592 20.2967 20.5715C20.3219 19.4143 20.3188 18.2571 20.2983 17.1C20.2841 16.2759 19.8468 15.8212 19.0274 15.8118C17.1599 15.7897 15.2907 15.7928 13.4232 15.8118C12.727 15.8181 12.2518 16.1843 12.2328 16.909C12.1981 18.1703 12.165 19.438 12.2597 20.693C12.2881 21.064 12.7428 21.6955 13.0159 21.7018C13.982 21.7255 13.9978 22.2212 13.8683 22.9221C13.832 23.1131 13.862 23.3152 13.862 23.5141Z" fill="white"/>
<path d="M30.7769 16.6469C30.559 16.598 30.4848 16.5711 30.4091 16.5664C28.7262 16.4701 27.6795 15.5308 26.8981 14.1005C26.5445 13.4532 25.9162 12.9544 25.4536 12.4334C25.6178 11.6883 25.7772 10.9637 25.9541 10.157C28.1705 11.7925 29.7586 13.9284 30.7769 16.6469Z" fill="white"/>
<path d="M8.82276 10.3055C9.00746 11.0601 9.17638 11.7563 9.32951 12.3846C8.47861 13.6081 7.62139 14.8521 6.74681 16.0835C6.67577 16.1845 6.50054 16.2682 6.37582 16.265C5.72699 16.254 5.07815 16.2113 4.37091 16.1782C5.32758 13.8039 6.80364 11.84 8.82276 10.3055Z" fill="white"/>
<path d="M16.1996 18.1515C15.5981 18.1515 14.9951 18.1767 14.3968 18.1357C14.2184 18.123 14.051 17.9289 13.879 17.8168C14.04 17.7205 14.1994 17.5421 14.3605 17.5389C15.6408 17.5152 16.9226 17.5152 18.2045 17.5405C18.3482 17.5437 18.4887 17.7473 18.6292 17.8594C18.4729 17.9557 18.3213 18.1294 18.1603 18.1372C17.5068 18.1688 16.8532 18.1515 16.1996 18.1515Z" fill="white"/>
<path d="M17.6078 19.6781C16.236 19.836 15.0598 19.7965 13.6754 19.7113C14.3573 19.1145 16.9053 19.105 17.6078 19.6781Z" fill="white"/>
</svg>
