<svg width="28" height="28" viewBox="0 0 28 28" fill="none" xmlns="http://www.w3.org/2000/svg">
<path d="M1.5975 25.5392C1.5975 23.1013 1.5975 20.6424 1.5975 18.1762C1.54379 18.1635 1.49463 18.1525 1.43454 18.1389C1.41179 17.7274 1.38903 17.3214 1.36536 16.888C1.08496 16.888 0.813675 16.888 0.541476 16.888C0.199179 16.888 0.196448 16.888 0.205551 16.5476C0.257442 14.6931 0.313885 12.8396 0.359403 10.9852C0.363955 10.7931 0.429501 10.7322 0.610664 10.7012C1.39176 10.5674 2.17103 10.4217 2.94848 10.2688C3.09778 10.2396 3.18153 10.277 3.27348 10.3899C3.59575 10.7895 3.92803 11.18 4.25668 11.5742C4.29764 11.6234 4.34134 11.6689 4.43602 11.7763C4.46333 11.7163 4.47607 11.6598 4.50885 11.6216C4.87208 11.1955 5.23623 10.7704 5.60857 10.3525C5.66137 10.2934 5.76242 10.246 5.84162 10.2442C6.36599 10.2351 6.89127 10.2451 7.41655 10.2351C7.54491 10.2324 7.6842 10.2023 7.79709 10.1441C9.45668 9.29104 11.1126 8.43166 12.7695 7.57409C12.9998 7.45484 12.9989 7.45484 13.1291 7.67059C13.1373 7.68516 13.1519 7.69608 13.1755 7.72248C15.2621 6.52991 17.3505 5.33642 19.4616 4.12927C19.559 4.29951 19.6482 4.45791 19.7474 4.63088C17.6354 5.83894 15.5416 7.03607 13.4268 8.24503C13.5442 8.47262 13.6571 8.69293 13.78 8.93236C13.7145 8.9715 13.658 9.00792 13.5988 9.03887C11.7508 9.99658 9.90276 10.9543 8.0529 11.9074C7.93455 11.9684 7.8863 12.0349 7.87993 12.1723C7.78707 14.0887 7.68693 16.005 7.5877 17.9213C7.58406 17.9905 7.57496 18.0597 7.56676 18.138C7.50122 18.1507 7.44113 18.1616 7.36921 18.1762C7.36921 20.6369 7.36921 23.0949 7.36921 25.5411C7.84989 25.643 8.32055 25.7468 8.79303 25.8378C8.9314 25.8642 8.96964 25.9234 8.96599 26.0581C8.95689 26.4123 8.96326 26.7664 8.96326 27.1224C8.1057 27.2225 7.28637 27.0677 6.47159 26.9184C6.38784 27.146 6.38784 27.146 6.14386 27.146C5.79974 27.146 5.45563 27.1369 5.11151 27.1488C4.94855 27.1542 4.90668 27.1023 4.90668 26.943C4.91214 24.9593 4.91032 22.9766 4.91032 20.9929C4.91032 20.5614 4.90303 20.1289 4.91396 19.6983C4.91851 19.5381 4.86389 19.4953 4.71459 19.5072C4.56347 19.519 4.41053 19.5199 4.26032 19.5072C4.08644 19.4926 4.04729 19.5645 4.05002 19.7284C4.06004 20.2355 4.05366 20.7434 4.05366 21.2505C4.05366 23.1404 4.05366 25.0303 4.05366 26.9203C4.05366 27.1451 4.05366 27.146 3.82334 27.146C3.40457 27.146 2.98581 27.146 2.5634 27.146C2.54701 27.0696 2.53335 27.0086 2.51424 26.9203C1.68763 27.065 0.863745 27.2243 0.000719301 27.1242C0.000719301 26.7373 -0.00292216 26.3486 0.00618149 25.9598C0.00709186 25.9234 0.0817418 25.867 0.130902 25.856C0.615216 25.7468 1.09862 25.6458 1.5975 25.5392Z" fill="white"/>
<path d="M28.0006 0.00182073C28.0006 5.67704 28.0006 11.3231 28.0006 16.9847C21.4851 16.9847 14.9732 16.9847 8.43409 16.9847C8.45321 16.6087 8.47323 16.2345 8.49326 15.844C8.59613 15.844 8.67625 15.844 8.75727 15.844C14.6719 15.844 20.5865 15.8449 26.5012 15.8449C26.8499 15.8449 26.8508 15.844 26.8508 15.4935C26.8517 10.7742 26.8517 6.05484 26.8517 1.33551C26.8517 1.28452 26.8471 1.23263 26.8435 1.16891C19.1564 1.16891 11.4784 1.16891 3.78121 1.16891C3.78121 1.48481 3.77393 1.78705 3.78486 2.08929C3.79032 2.23495 3.75026 2.30778 3.60096 2.34692C3.28689 2.42976 2.97827 2.53264 2.64326 2.6346C2.63688 2.55813 2.62778 2.5035 2.62778 2.44979C2.62687 1.69146 2.63142 0.933124 2.62505 0.17479C2.62323 0.0327731 2.67057 0 2.8053 0C7.93885 0.00273109 13.0715 0.00273109 18.205 0.00273109C21.3895 0.00273109 24.5749 0.00273109 27.7593 0.00273109C27.834 0.00182073 27.9077 0.00182073 28.0006 0.00182073Z" fill="white"/>
<path d="M1.04595 6.2998C1.06871 4.38348 2.60722 2.87501 4.51171 2.89959C6.39343 2.92417 7.89645 4.47179 7.87824 6.36717C7.86003 8.25253 6.2942 9.74826 4.36696 9.72095C2.54168 9.69546 1.0241 8.13146 1.04595 6.2998Z" fill="white"/>
<path d="M21.1939 14.8644C21.1939 14.4757 21.1939 14.0915 21.1939 13.7082C21.1939 13.2011 21.1939 13.2066 21.6937 13.2075C22.9582 13.2102 24.2236 13.2112 25.4881 13.2039C25.6611 13.203 25.7202 13.2421 25.7148 13.4251C25.7011 13.8621 25.7084 14.299 25.7111 14.7369C25.7121 14.8343 25.6911 14.8871 25.5773 14.8862C24.1435 14.8826 22.7097 14.8835 21.2758 14.8826C21.2595 14.8826 21.2422 14.8753 21.1939 14.8644Z" fill="white"/>
</svg>
