<svg width="32" height="38" viewBox="0 0 32 38" fill="none" xmlns="http://www.w3.org/2000/svg">
<path d="M5.79447 10.7863C5.79418 10.2004 5.79274 9.61488 5.79476 9.02904C5.79592 8.72121 5.92972 8.58105 6.23865 8.57873C6.9042 8.57352 7.57004 8.56975 8.23559 8.57989C8.448 8.58307 8.5529 8.50604 8.62804 8.30565C8.80144 7.84317 8.99795 7.3891 9.19504 6.93589C9.26989 6.7633 9.25169 6.63472 9.11384 6.50035C8.65434 6.05265 8.20351 5.59597 7.7495 5.14248C7.46225 4.85578 7.46051 4.66205 7.74517 4.37652C8.53123 3.58826 9.317 2.8 10.1054 2.01434C10.4643 1.65641 10.6134 1.65844 10.9732 2.01753C11.4047 2.44786 11.8379 2.87645 12.2618 3.31402C12.4069 3.46373 12.541 3.49501 12.7361 3.40611C13.1782 3.20484 13.6247 3.01024 14.0807 2.84401C14.3229 2.75569 14.3437 2.58918 14.3432 2.38589C14.3414 1.77572 14.3388 1.16556 14.34 0.555399C14.3408 0.130573 14.4709 0.000837892 14.8911 0.000548304C16.0196 -3.08727e-05 17.1478 -0.000320461 18.2763 0.000548304C18.6899 0.000837892 18.8069 0.121307 18.8075 0.539182C18.8084 1.17367 18.8118 1.80845 18.8087 2.44293C18.8075 2.65491 18.8806 2.77451 19.0994 2.85154C19.5418 3.00734 19.975 3.19384 20.4007 3.39249C20.6111 3.49066 20.7594 3.47039 20.9195 3.30562C21.3671 2.84546 21.8234 2.39428 22.2783 1.94137C22.5312 1.68943 22.7199 1.67784 22.9664 1.92283C23.8022 2.75308 24.6339 3.58768 25.4621 4.42546C25.6974 4.6635 25.6844 4.85289 25.441 5.09614C25.0047 5.53255 24.5677 5.96867 24.1302 6.40421C23.8744 6.65905 23.8718 6.71899 24.0157 7.04275C24.19 7.43572 24.3651 7.83014 24.5035 8.23644C24.5879 8.48461 24.7079 8.58886 24.9743 8.58249C25.6072 8.56715 26.2407 8.57496 26.8739 8.57873C27.2403 8.58105 27.3703 8.71194 27.3712 9.08087C27.3738 10.236 27.3735 11.3912 27.3706 12.5464C27.3698 12.9136 27.2357 13.0404 26.8684 13.041C26.2352 13.0419 25.602 13.0477 24.9688 13.0398C24.7194 13.0366 24.5923 13.14 24.5085 13.3772C24.3599 13.7974 24.1929 14.2132 23.9978 14.6135C23.8834 14.8483 23.9218 15.0012 24.0978 15.1718C24.5293 15.5902 24.9497 16.0203 25.3746 16.4457C25.7138 16.7857 25.7144 16.938 25.3775 17.2759C24.5978 18.0581 23.8186 18.8409 23.0378 19.6219C22.6982 19.9616 22.5459 19.9595 22.2072 19.6201C21.7769 19.189 21.3417 18.7621 20.9183 18.324C20.7518 18.1516 20.5993 18.1317 20.3805 18.2345C19.9707 18.4273 19.5496 18.5991 19.1239 18.754C18.8959 18.8368 18.8035 18.9686 18.8061 19.2046C18.813 19.8472 18.8092 20.4901 18.8098 21.1327C18.8101 21.466 18.6763 21.6131 18.3434 21.6143C17.1663 21.6189 15.9893 21.6186 14.8122 21.616C14.5009 21.6154 14.3512 21.4695 14.3469 21.1489C14.3385 20.5144 14.3443 19.8799 14.3426 19.2454C14.3417 18.8852 14.3189 18.8742 13.979 18.7439C13.571 18.5875 13.1664 18.4189 12.7705 18.2339C12.5563 18.1337 12.4031 18.1424 12.2321 18.3213C11.7945 18.7792 11.3405 19.2217 10.8917 19.6688C10.6241 19.9352 10.4366 19.9367 10.1646 19.6659C9.34185 18.8464 8.5214 18.0242 7.70211 17.2015C7.4793 16.9779 7.47756 16.7677 7.69691 16.5462C8.14282 16.0961 8.59278 15.6505 9.04072 15.2025C9.29446 14.9488 9.29128 14.8871 9.14274 14.5634C8.96385 14.1736 8.79566 13.7771 8.65145 13.3734C8.56822 13.1397 8.44713 13.0332 8.19426 13.0375C7.55299 13.0482 6.91172 13.0416 6.27044 13.0398C5.93463 13.039 5.79707 12.9031 5.79563 12.5687C5.79303 11.9739 5.79476 11.3802 5.79447 10.7863ZM16.5837 0.816029C16.5837 0.815739 16.5837 0.81516 16.5837 0.81487C16.2427 0.81487 15.9017 0.813422 15.561 0.81516C15.1939 0.816897 15.152 0.858598 15.1518 1.22029C15.1509 1.81424 15.1535 2.40818 15.1512 3.00184C15.15 3.28448 15.048 3.41827 14.7735 3.48922C14.0469 3.67745 13.358 3.95372 12.7124 4.33974C12.4222 4.5132 12.3072 4.49583 12.0679 4.25836C11.6414 3.8347 11.2194 3.40668 10.792 2.98389C10.5891 2.78291 10.4776 2.78552 10.2788 2.98418C9.79008 3.47213 9.30168 3.96038 8.8156 4.45094C8.5477 4.72141 8.55001 4.79902 8.8208 5.07182C9.24446 5.49838 9.66726 5.92581 10.0938 6.34977C10.258 6.5131 10.2739 6.6938 10.1571 6.88029C9.74471 7.54056 9.47045 8.25729 9.26411 9.00442C9.18204 9.30154 9.08002 9.37423 8.78005 9.37539C8.17923 9.37741 7.57871 9.37568 6.97789 9.37596C6.68312 9.37625 6.59845 9.45184 6.59671 9.74316C6.59209 10.4428 6.59093 11.1425 6.59556 11.8421C6.59787 12.1656 6.68139 12.2438 7.00535 12.2452C7.59807 12.2481 8.19051 12.2443 8.78323 12.2467C9.08494 12.2478 9.19273 12.3277 9.26903 12.6167C9.46294 13.3514 9.73546 14.0517 10.1314 14.7029C10.2932 14.9694 10.2684 15.1069 10.0473 15.3311C9.63084 15.7536 9.20834 16.1697 8.79305 16.5931C8.55955 16.8308 8.56128 16.927 8.79537 17.1627C9.28203 17.6527 9.77158 18.1398 10.2603 18.6277C10.4845 18.8516 10.5692 18.8501 10.7992 18.6205C11.2304 18.1899 11.6625 17.7604 12.0919 17.3283C12.2745 17.1445 12.4751 17.128 12.6869 17.2617C13.3245 17.6637 14.0166 17.931 14.7422 18.1209C15.0662 18.2058 15.1515 18.3213 15.152 18.6576C15.1532 19.2353 15.1515 19.8127 15.1529 20.3905C15.1538 20.7432 15.211 20.8031 15.5633 20.8046C16.2534 20.8077 16.9432 20.8075 17.6333 20.8057C17.9399 20.8049 18.0116 20.7368 18.0134 20.4348C18.0171 19.8246 18.0191 19.2144 18.0128 18.6043C18.0102 18.3549 18.1191 18.2 18.3555 18.1432C19.1112 17.9617 19.8141 17.6521 20.4837 17.2635C20.7183 17.1274 20.9018 17.1627 21.0885 17.3564C21.5 17.7833 21.9246 18.1977 22.3427 18.6182C22.5719 18.849 22.6557 18.8574 22.8849 18.6309C23.3817 18.1398 23.8753 17.6452 24.3651 17.1474C24.6134 16.8948 24.6084 16.8195 24.355 16.5653C23.9308 16.1393 23.5068 15.713 23.0788 15.2908C22.9164 15.1307 22.8829 14.9482 22.9962 14.7609C23.3993 14.0957 23.69 13.3859 23.8868 12.6338C23.9692 12.3193 24.0888 12.2455 24.4128 12.2455C25.0055 12.2455 25.598 12.2458 26.1907 12.2443C26.3834 12.2438 26.5545 12.2107 26.5548 11.9602C26.556 11.1957 26.5568 10.4309 26.5589 9.66642C26.5594 9.45242 26.4644 9.36786 26.2439 9.3722C25.6433 9.38349 25.0425 9.37625 24.4417 9.37596C24.0686 9.37568 23.962 9.30328 23.8744 8.94766C23.7019 8.24802 23.4158 7.59645 23.0655 6.97036C22.8658 6.61329 22.8765 6.52787 23.1733 6.22872C23.5739 5.82503 23.9793 5.42656 24.379 5.02201C24.603 4.79526 24.6004 4.69477 24.3787 4.47266C23.8851 3.97804 23.3915 3.48371 22.8967 2.99055C22.6826 2.77712 22.5835 2.77857 22.3693 2.99286C21.9448 3.41827 21.5206 3.84396 21.0972 4.27053C20.9328 4.43617 20.7504 4.51494 20.5308 4.38462C19.8641 3.98934 19.1627 3.68063 18.4081 3.49356C18.0917 3.41508 18.0162 3.29867 18.0157 2.97114C18.0148 2.39342 18.0183 1.81598 18.0162 1.23825C18.0148 0.840644 17.9954 0.820662 17.6082 0.816608C17.2657 0.813133 16.9247 0.816029 16.5837 0.816029Z" fill="white"/>
<path d="M6.03684 36.616C5.83599 36.4397 5.64785 36.2746 5.44556 36.0971C5.51925 36.0157 5.56982 35.9549 5.6256 35.899C6.89861 34.6213 8.17451 33.3469 9.44261 32.0646C9.60907 31.8963 9.78015 31.8228 10.0191 31.823C14.0702 31.8288 18.1213 31.8254 22.1724 31.8306C22.4094 31.8309 22.5845 31.7637 22.7527 31.5946C25.1259 29.211 27.5061 26.8346 29.8804 24.4522C30.8168 23.5127 30.9616 22.1059 30.2541 20.9554C30.0585 20.6371 29.9686 20.6209 29.7033 20.8853C28.7993 21.7853 27.8991 22.6889 26.9983 23.5918C26.3672 24.2245 25.7343 24.8556 25.1095 25.4947C24.9872 25.6198 24.9118 25.6201 24.7994 25.4898C24.6783 25.3496 24.5355 25.228 24.3584 25.0554C24.7014 24.7241 25.0366 24.4096 25.3617 24.0847C26.7813 22.666 28.1979 21.2444 29.6157 19.824C29.9495 19.4895 30.1287 19.4895 30.437 19.8451C31.067 20.5717 31.4667 21.4042 31.5109 22.3764C31.5586 23.4308 31.1427 24.3137 30.4156 25.0478C28.5173 26.964 26.6076 28.8687 24.7023 30.7779C24.1743 31.307 23.6379 31.828 23.1221 32.3686C22.9377 32.5618 22.7455 32.6377 22.4819 32.6371C18.4878 32.6307 14.4936 32.6359 10.4995 32.6258C10.1544 32.6249 9.90962 32.7315 9.66889 32.9765C8.46119 34.2043 7.2376 35.416 6.03684 36.616Z" fill="white"/>
<path d="M13.7417 27.7092C13.7417 27.4575 13.7417 27.2157 13.7417 26.9345C13.851 26.9345 13.9524 26.9345 14.0538 26.9345C16.043 26.9345 18.0321 26.9172 20.0209 26.9403C21.3896 26.9563 21.9592 26.1466 22.2014 24.9969C22.247 24.7806 22.1601 24.6844 21.919 24.6795C21.4078 24.6691 20.8963 24.6726 20.3848 24.6726C16.2768 24.6729 12.1684 24.6772 8.06042 24.6677C7.72403 24.6668 7.48446 24.7679 7.24893 25.0056C5.02427 27.2508 2.78949 29.4861 0.557312 31.724C0.55211 31.7293 0.543151 31.7307 0.518298 31.7417C0.354439 31.5549 0.185379 31.3626 0.000423769 31.1518C-0.00391111 31.1573 0.0255661 31.111 0.0634241 31.0731C2.35224 28.7784 4.64424 26.4871 6.9267 24.1861C7.14894 23.9622 7.36944 23.864 7.68935 23.8646C12.6256 23.8748 17.5619 23.8762 22.4982 23.8652C23.0227 23.864 23.1198 24.1145 23.0892 24.4745C23.01 25.4102 22.7713 26.2824 22.106 26.9855C21.6601 27.457 21.1029 27.7211 20.4611 27.7251C18.2448 27.7396 16.0282 27.73 13.8119 27.7289C13.7975 27.7286 13.7825 27.7205 13.7417 27.7092Z" fill="white"/>
<path d="M31.1046 20.3068C32.2591 21.8775 32.4319 23.8423 30.8185 25.5138C29.7134 26.6586 28.5759 27.7723 27.4523 28.8994C26.1622 30.1936 24.8684 31.4837 23.5847 32.7837C23.3394 33.0321 23.0703 33.1422 22.7218 33.1419C18.712 33.1361 14.7025 33.1407 10.6928 33.1338C10.4691 33.1335 10.3139 33.2024 10.1622 33.3556C8.92298 34.6072 7.67887 35.8536 6.43591 37.1011C6.3969 37.1402 6.35239 37.1735 6.29951 37.219C6.20327 37.1333 6.1134 37.0534 5.97815 36.9332C6.26656 36.6586 6.55093 36.3983 6.82374 36.1261C7.84215 35.1108 8.85969 34.0946 9.87001 33.0712C10.0295 32.9096 10.1876 32.839 10.4211 32.8393C14.4552 32.8474 18.4892 32.8442 22.523 32.8471C22.8091 32.8474 23.0319 32.7495 23.2356 32.5448C25.5903 30.1791 27.9494 27.8178 30.3107 25.4588C30.9055 24.8646 31.4069 24.2153 31.6144 23.3805C31.858 22.4005 31.6811 21.4787 31.2199 20.5981C31.1823 20.5263 31.1424 20.4553 31.1057 20.3829C31.0994 20.3719 31.1046 20.3543 31.1046 20.3068Z" fill="white"/>
<path d="M0.817936 32.3432C0.750023 32.2847 0.712165 32.2545 0.676908 32.2215C0.624022 32.1714 0.57287 32.1196 0.513916 32.0611C1.16213 31.4084 1.80456 30.7597 2.4493 30.113C4.1006 28.4569 5.7545 26.8036 7.40205 25.1437C7.57804 24.9665 7.75375 24.8816 8.01471 24.8822C12.5756 24.8912 17.1362 24.8886 21.697 24.8886C21.7921 24.8886 21.8872 24.8886 21.9788 24.8886C22.0256 25.1396 21.9014 25.1764 21.7187 25.1756C19.9827 25.1677 18.2465 25.1593 16.5105 25.1602C14.2309 25.1614 11.9514 25.1712 9.6715 25.1773C9.15218 25.1787 8.63286 25.1727 8.11383 25.1854C8.01355 25.1877 7.88929 25.2349 7.81906 25.305C5.67763 27.4445 3.5414 29.5892 1.40546 31.7339C1.21125 31.9285 1.02341 32.1294 0.817936 32.3432Z" fill="white"/>
<path d="M13.6412 27.9531C13.7282 27.9476 13.8059 27.9389 13.8833 27.9389C15.9115 27.938 17.9408 27.8981 19.9678 27.9499C21.8292 27.9974 22.7988 26.8978 23.1721 25.3309C23.2718 24.9124 23.2753 24.4708 23.321 24.0587C23.4701 24.167 23.5877 24.3463 23.5776 24.5971C23.5421 25.4809 23.3568 26.3198 22.8358 27.0554C22.3147 27.7912 21.6098 28.2114 20.7021 28.2175C18.7714 28.2302 16.8406 28.2224 14.9098 28.2236C14.6258 28.2239 14.342 28.2285 14.0579 28.2282C13.8172 28.2273 13.7943 28.2111 13.6412 27.9531Z" fill="white"/>
<path d="M25.2311 26.1874C25.1383 26.108 25.0482 26.0313 24.9828 25.9754C26.655 24.2937 28.3167 22.6228 29.9948 20.9348C30.0564 21.0356 30.118 21.1364 30.1824 21.2418C28.534 22.8884 26.8951 24.5254 25.2311 26.1874Z" fill="white"/>
<path d="M20.9209 18.6659C20.4602 18.8521 20.0238 19.0456 19.5747 19.2028C19.3678 19.2752 19.2817 19.3537 19.2904 19.5912C19.3123 20.2074 19.2996 20.8248 19.2961 21.4416C19.2935 21.8708 19.0615 22.1091 18.6358 22.11C17.4602 22.1126 16.2843 22.1085 15.1086 22.1085C14.8503 22.1085 14.6408 22.0167 14.4951 21.8224C15.1945 21.8224 15.895 21.8224 16.5955 21.8224C17.1631 21.8224 17.7307 21.8247 18.2985 21.8227C18.7979 21.821 19.0288 21.5997 19.0352 21.0973C19.043 20.4718 19.0433 19.846 19.0317 19.2205C19.0288 19.0618 19.0785 18.9952 19.223 18.9419C19.6028 18.802 19.9906 18.6708 20.3458 18.4812C20.6047 18.3424 20.7564 18.3804 20.9209 18.6659Z" fill="white"/>
<path d="M24.4215 15.1518C24.0911 14.8888 24.1047 14.8952 24.2449 14.5874C24.4128 14.219 24.5657 13.8425 24.7027 13.4614C24.7599 13.3022 24.8344 13.2518 24.9995 13.255C25.5832 13.2663 26.167 13.2634 26.7507 13.2628C27.381 13.2625 27.5796 13.0693 27.5822 12.4331C27.5865 11.4421 27.5819 10.4509 27.581 9.45991C27.5807 9.22737 27.581 8.99512 27.581 8.75708C27.7645 8.87263 27.8472 9.06346 27.8483 9.2766C27.8556 10.5033 27.8593 11.7303 27.8489 12.957C27.8457 13.3161 27.5796 13.5359 27.2036 13.5364C26.5551 13.5373 25.9063 13.5402 25.2578 13.5292C25.1006 13.5266 25.0379 13.5781 24.9844 13.7244C24.8119 14.1955 24.6183 14.6586 24.4215 15.1518Z" fill="white"/>
<path d="M25.7928 16.6321C26.1604 16.9437 26.2035 17.3115 25.9283 17.5915C25.0865 18.4492 24.2389 19.3018 23.3832 20.1459C23.0419 20.4827 22.6587 20.4248 22.3044 19.9899C22.6833 20.1622 22.9465 20.0211 23.1953 19.7677C23.9638 18.9859 24.7397 18.2115 25.518 17.4395C25.7301 17.2295 25.9 17.0123 25.7928 16.6321Z" fill="white"/>
<path d="M10.217 20.0015C10.6031 20.1339 10.8571 20.016 11.092 19.7693C11.5056 19.3349 11.9426 18.9225 12.3622 18.4936C12.4679 18.3856 12.5541 18.3572 12.6994 18.4227C13.1049 18.6051 13.5199 18.7656 13.9276 18.9431C14.0126 18.9801 14.0823 19.0531 14.1588 19.1093C14.1392 19.1414 14.1195 19.1736 14.0999 19.2057C13.7363 19.045 13.3658 18.8973 13.0118 18.7178C12.852 18.6367 12.7685 18.6477 12.6431 18.7783C12.2113 19.2286 11.7619 19.6624 11.3198 20.1026C10.9658 20.455 10.6091 20.4376 10.217 20.0015Z" fill="white"/>
<path d="M24.8572 8.36933C24.8089 8.30562 24.7448 8.24857 24.7147 8.17733C24.5396 7.75945 24.383 7.33347 24.1968 6.92081C24.1315 6.7763 24.1399 6.69695 24.2523 6.58778C24.6881 6.1644 25.1086 5.72481 25.5453 5.3023C25.773 5.08163 25.8976 4.84069 25.7901 4.50159C26.1958 4.85807 26.2088 5.18299 25.8484 5.54555C25.4314 5.96488 25.0199 6.39028 24.5896 6.7957C24.4139 6.96135 24.3841 7.0934 24.5023 7.31146C24.6748 7.62972 24.8031 7.97201 24.9502 8.30388C24.919 8.3256 24.8881 8.34761 24.8572 8.36933Z" fill="white"/>
<path d="M8.44309 13.5289C7.76049 13.5289 7.0961 13.5431 6.43286 13.5191C6.26698 13.513 6.10572 13.3841 5.94244 13.3117C5.95054 13.2918 5.95892 13.2718 5.96701 13.2521C6.7129 13.2521 7.45908 13.2533 8.20496 13.2512C8.38154 13.2506 8.45523 13.3349 8.44309 13.5289Z" fill="white"/>
<path d="M19.0889 0.203491C19.1565 0.349154 19.2779 0.493369 19.2825 0.641059C19.3036 1.30479 19.2918 1.96969 19.2918 2.63806C19.0863 2.65659 19.0311 2.5674 19.0331 2.38438C19.0412 1.66997 19.0363 0.955262 19.0363 0.240848C19.0539 0.228396 19.0716 0.215944 19.0889 0.203491Z" fill="white"/>
<path d="M16.5697 14.2642C14.7731 14.303 13.1125 12.7858 13.1224 10.8083C13.1319 8.86511 14.6725 7.35752 16.5981 7.35231C18.5017 7.34738 20.0934 8.97863 20.0356 10.9223C19.9807 12.7598 18.4285 14.2836 16.5697 14.2642ZM13.9321 10.8097C13.9275 12.2643 15.1184 13.4652 16.5709 13.4701C18.0138 13.4751 19.2299 12.2672 19.2357 10.8236C19.2415 9.37218 18.0485 8.1646 16.5992 8.15476C15.1294 8.14491 13.937 9.33222 13.9321 10.8097Z" fill="white"/>
<path d="M14.3825 13.7609C15.8965 14.8463 17.6941 14.6239 18.8847 13.6636C20.1346 12.6555 20.7961 10.6976 19.6812 8.80603C20.773 10.0261 20.9082 12.2452 19.4306 13.7067C17.9646 15.157 15.685 15.0461 14.3825 13.7609Z" fill="white"/>
<path d="M15.3596 1.03381C16.1827 1.03381 16.9731 1.03381 17.7788 1.03381C17.7788 1.12388 17.7788 1.20062 17.7788 1.29937C17.0713 1.29937 16.3763 1.29937 15.65 1.29937C15.6446 1.41375 15.6368 1.50729 15.6365 1.60112C15.6344 2.16176 15.6373 2.72269 15.6327 3.28333C15.6295 3.68065 15.4743 3.86425 15.0859 3.97313C14.3973 4.16571 13.7311 4.41012 13.1202 4.79498C12.7306 5.04027 12.4743 4.97279 12.0515 4.54565C12.3645 4.7446 12.6237 4.60588 12.9144 4.46833C13.4982 4.19235 14.0953 3.9378 14.7048 3.72611C15.2507 3.53672 15.3648 3.43016 15.3628 2.8449C15.3611 2.33291 15.3608 1.82091 15.3596 1.30892C15.3596 1.22205 15.3596 1.13488 15.3596 1.03381Z" fill="white"/>
<path d="M10.4641 6.43945C10.7698 6.7664 10.7993 6.93697 10.5632 7.33891C10.2023 7.95284 9.94418 8.6076 9.75345 9.2919C9.62456 9.75408 9.47226 9.86557 8.98791 9.86615C8.36484 9.86702 7.74149 9.86644 7.08547 9.86644C7.08547 10.5852 7.08547 11.2877 7.08547 11.9822C6.91468 12.0375 6.81498 12.034 6.81555 11.8446C6.81816 11.1053 6.81671 10.366 6.81671 9.60002C6.95947 9.59336 7.08576 9.58293 7.21205 9.58235C7.73975 9.58033 8.26716 9.58438 8.79486 9.57975C9.18096 9.57656 9.36186 9.44654 9.46243 9.07065C9.65895 8.33539 9.9465 7.64211 10.3274 6.98272C10.4178 6.82547 10.4219 6.61784 10.4641 6.43945Z" fill="white"/>
<path d="M18.1989 3.6577C18.9199 3.82218 19.6034 4.08513 20.2429 4.46072C20.7359 4.75031 20.9301 4.72801 21.3313 4.32317C21.7529 3.89718 22.1728 3.47004 22.6144 3.02234C22.7228 3.12369 22.8086 3.20449 22.9311 3.31917C22.5433 3.69679 22.163 4.06688 21.7829 4.43727C21.7364 4.48244 21.6911 4.52907 21.6468 4.57656C21.255 4.99849 21.0466 5.03208 20.5455 4.74742C19.9507 4.40918 19.3262 4.1471 18.663 3.97335C18.4858 3.92701 18.3243 3.82044 18.1555 3.74139C18.17 3.71388 18.1844 3.68579 18.1989 3.6577Z" fill="white"/>
<path d="M9.51861 12.3943C9.60328 12.5811 9.71397 12.7606 9.76772 12.9558C9.94979 13.6178 10.2012 14.2474 10.5494 14.8393C10.8032 15.2705 10.7653 15.4761 10.4096 15.8262C9.97609 16.2528 9.5504 16.6869 9.10391 17.1354C9.00767 17.0477 8.92097 16.9686 8.78717 16.8467C9.15448 16.4928 9.50994 16.152 9.86367 15.8091C9.99776 15.6791 10.1321 15.5488 10.2576 15.4106C10.4711 15.1758 10.5035 14.9015 10.3393 14.6267C9.92898 13.9387 9.62496 13.2089 9.44174 12.4296C9.46688 12.4177 9.49289 12.4062 9.51861 12.3943Z" fill="white"/>
<path d="M9.06115 4.98435C8.99324 4.92151 8.91117 4.84506 8.79297 4.7356C9.25131 4.28761 9.70127 3.84772 10.1509 3.40784C10.1972 3.36237 10.2431 3.31662 10.2879 3.2697C10.533 3.01081 10.5327 3.01081 10.7786 3.28592C10.2116 3.84656 9.64463 4.40749 9.06115 4.98435Z" fill="white"/>
<path d="M26.3557 9.57458C26.3491 9.69969 26.3456 9.76948 26.3413 9.85288C25.7124 9.85288 25.0966 9.86996 24.4831 9.8413C24.3218 9.83377 24.1669 9.68521 23.9583 9.57458C24.7986 9.57458 25.5622 9.57458 26.3557 9.57458Z" fill="white"/>
<path d="M15.3567 18.3101C15.5494 18.4812 15.6413 18.6839 15.639 18.9361C15.6344 19.4785 15.6376 20.0209 15.6376 20.5613C15.4029 20.6346 15.3573 20.5179 15.3573 20.3447C15.3576 19.8171 15.357 19.2894 15.3567 18.7618C15.3567 18.6164 15.3567 18.4711 15.3567 18.3101Z" fill="white"/>
<path d="M18.2005 8.99777C16.7295 8.4574 15.827 8.59177 15.0346 9.47357C14.4167 10.1611 14.1439 11.3049 14.7646 12.3738C14.2962 12.0115 14.03 11.0724 14.2011 10.3085C14.4126 9.36381 14.9883 8.7273 15.9151 8.46291C16.7622 8.2211 17.5352 8.41483 18.2005 8.99777Z" fill="white"/>
</svg>
