<svg width="23" height="31" viewBox="0 0 23 31" fill="none" xmlns="http://www.w3.org/2000/svg">
<path d="M23 30.6667C15.3221 30.6667 7.6675 30.6667 0 30.6667C0 20.4391 0 10.2305 0 0C5.67983 0 11.353 0 17.0553 0C17.0553 0.0891461 17.0553 0.17034 17.0553 0.251116C17.0553 1.93903 17.0553 3.62695 17.0553 5.31486C17.0553 5.78278 17.2293 5.95772 17.6964 5.95772C19.3779 5.95814 21.0595 5.95772 22.741 5.95772C22.8223 5.95772 22.9037 5.95772 22.9996 5.95772C23 14.2048 23 22.4246 23 30.6667ZM5.90045 19.089C5.90045 19.2158 5.88919 19.3208 5.90295 19.4221C5.92839 19.6105 5.84623 19.6636 5.66815 19.6958C4.73938 19.8624 4.05249 20.3617 3.78642 21.2883C3.50866 22.2555 3.67715 23.1562 4.41241 23.8932C4.77441 24.2561 5.23067 24.4658 5.71236 24.6156C5.85791 24.6608 5.90629 24.7261 5.90421 24.8785C5.89586 25.5339 5.90045 26.1893 5.90045 26.8447C5.90045 26.9326 5.90045 27.0205 5.90045 27.149C5.45879 26.9058 5.18646 26.5689 5.05842 26.1399C4.98669 25.9001 4.90078 25.7938 4.65388 25.8729C4.62803 25.8812 4.59841 25.8762 4.57089 25.8796C4.20055 25.9202 3.82979 25.9616 3.45736 26.0026C3.45402 26.0537 3.44693 26.0817 3.45111 26.1077C3.65296 27.3448 4.33067 28.284 5.68692 28.5322C5.86792 28.5652 5.91088 28.6351 5.90337 28.8034C5.89086 29.0784 5.90003 29.3542 5.90003 29.6266C6.20323 29.6266 6.46973 29.6266 6.74915 29.6266C6.74915 29.2629 6.74915 28.9151 6.74915 28.5535C6.85884 28.5276 6.95893 28.5033 7.05944 28.4807C8.39401 28.1798 9.21727 27.1469 9.19224 25.7959C9.17389 24.786 8.73265 24.0468 7.79011 23.6451C7.50985 23.5254 7.22167 23.4203 6.93057 23.3312C6.79169 23.2885 6.74498 23.2307 6.74665 23.0859C6.75416 22.4443 6.74957 21.8031 6.7504 21.1615C6.7504 21.1096 6.75916 21.0577 6.76583 20.9866C7.19206 21.1619 7.35638 21.5143 7.47274 21.9115C7.97111 21.845 8.45406 21.7801 8.9466 21.714C8.83775 21.141 8.62505 20.6685 8.22635 20.2881C7.86935 19.947 7.42853 19.7846 6.95976 19.6988C6.77835 19.6657 6.72872 19.5925 6.74748 19.4246C6.75958 19.3171 6.74957 19.2074 6.74957 19.0894C6.45763 19.089 6.19572 19.089 5.90045 19.089ZM11.6241 8.39061C11.6241 8.38852 11.6241 8.38601 11.6241 8.38392C9.39285 8.38392 7.16203 8.38392 4.93081 8.38392C4.24976 8.38392 3.56871 8.3835 2.88767 8.38475C2.66371 8.38517 2.49981 8.48813 2.41181 8.69446C2.33049 8.88531 2.35009 9.08746 2.50607 9.21385C2.62493 9.31011 2.80092 9.37959 2.95273 9.3821C3.86315 9.39717 4.77358 9.38922 5.684 9.38922C10.5489 9.38922 15.4138 9.39005 20.2787 9.38922C20.6336 9.38922 20.8497 9.20046 20.8547 8.89535C20.8597 8.58188 20.6395 8.38433 20.2762 8.38433C19.644 8.38433 19.0113 8.39019 18.3791 8.39019C16.1274 8.39145 13.8757 8.39061 11.6241 8.39061ZM11.6266 16.7465C10.9943 16.7465 10.3617 16.7465 9.72941 16.7465C7.46356 16.7465 5.19814 16.7461 2.93229 16.7469C2.58906 16.7469 2.3651 16.9541 2.37136 17.2563C2.37761 17.5492 2.59948 17.7459 2.92937 17.7505C2.96399 17.7509 2.99902 17.7505 3.03364 17.7505C8.7535 17.7505 14.4734 17.7505 20.1932 17.7505C20.2629 17.7505 20.3325 17.7543 20.4018 17.7476C20.692 17.7187 20.8897 17.4655 20.8518 17.1763C20.8151 16.898 20.6082 16.7469 20.2591 16.7469C17.3811 16.7465 14.5038 16.7465 11.6266 16.7465ZM11.6266 14.964C14.483 14.964 17.3394 14.964 20.1953 14.964C20.6249 14.964 20.8493 14.7949 20.8543 14.4693C20.8597 14.134 20.6328 13.9587 20.1916 13.9587C14.4721 13.9587 8.75267 13.9587 3.0328 13.9587C2.96315 13.9587 2.89351 13.9558 2.82469 13.9637C2.56153 13.993 2.37553 14.1956 2.37052 14.4521C2.36552 14.7145 2.55778 14.9301 2.82845 14.959C2.91102 14.9678 2.99485 14.964 3.07826 14.964C5.92798 14.964 8.77728 14.964 11.6266 14.964ZM11.6066 12.1749C14.4559 12.1749 17.3052 12.1749 20.1545 12.1749C20.2379 12.1749 20.3217 12.1783 20.4043 12.1695C20.6695 12.1414 20.8513 11.9418 20.8547 11.6815C20.858 11.4128 20.6716 11.2027 20.3997 11.1751C20.3171 11.1667 20.2329 11.1705 20.1499 11.1705C18.2181 11.1705 16.2863 11.1705 14.3545 11.1705C10.5806 11.1705 6.80671 11.1705 3.0328 11.1705C2.60491 11.1705 2.37761 11.3408 2.37136 11.6652C2.36468 11.9962 2.59782 12.1749 3.03781 12.1749C5.89378 12.1749 8.75017 12.1749 11.6066 12.1749ZM6.7504 5.54254C8.02783 5.54254 9.30568 5.54422 10.5831 5.54129C10.8863 5.54087 11.0915 5.33998 11.0969 5.05538C11.1023 4.77371 10.8984 4.55901 10.6056 4.5385C10.5643 4.53557 10.5222 4.53724 10.4805 4.53724C7.98112 4.53724 5.48131 4.53682 2.98192 4.5385C2.89309 4.5385 2.79967 4.54394 2.71584 4.57114C2.37511 4.68038 2.24624 5.10979 2.49898 5.36174C2.60282 5.46511 2.78924 5.53333 2.93855 5.53459C4.20889 5.54882 5.47965 5.54296 6.7504 5.54254ZM16.5015 21.4101C16.8839 21.4101 17.266 21.4101 17.6484 21.4101C18.538 21.4101 19.4275 21.4122 20.3175 21.4093C20.6708 21.408 20.8939 21.1661 20.8513 20.8418C20.8155 20.5676 20.5986 20.4061 20.2596 20.4061C17.7506 20.4057 15.2412 20.4057 12.7322 20.4065C12.6629 20.4065 12.592 20.4073 12.5253 20.4228C12.1483 20.5111 11.9882 20.9703 12.2613 21.2385C12.3656 21.3411 12.5549 21.4018 12.7063 21.4034C13.9712 21.416 15.2362 21.4105 16.5015 21.4101Z" fill="white"/>
<path d="M18.126 0.723633C19.5056 2.11188 20.8856 3.50014 22.3082 4.93149C22.1777 4.94238 22.1193 4.95117 22.0609 4.95117C20.8027 4.952 19.5448 4.94824 18.2866 4.95577C18.1052 4.95703 18.0505 4.91057 18.0518 4.72349C18.0601 3.46079 18.0559 2.19852 18.0559 0.935826C18.0559 0.880999 18.0559 0.826172 18.0559 0.771345C18.0797 0.755022 18.1031 0.739118 18.126 0.723633Z" fill="white"/>
<path d="M5.90066 19.089C6.19635 19.089 6.45784 19.089 6.75061 19.089C6.75061 19.207 6.7602 19.3171 6.74852 19.4242C6.73017 19.5921 6.7798 19.6649 6.9608 19.6984C7.42999 19.7846 7.87039 19.9465 8.22739 20.2876C8.62568 20.6681 8.83837 21.1406 8.94764 21.7136C8.4551 21.7797 7.97215 21.8441 7.47378 21.9111C7.357 21.5139 7.1931 21.1615 6.76687 20.9862C6.7602 21.0573 6.75144 21.1092 6.75144 21.1611C6.75061 21.8027 6.75478 22.4443 6.74769 23.0855C6.74602 23.2303 6.79315 23.2881 6.93161 23.3308C7.22271 23.4199 7.51089 23.5249 7.79115 23.6446C8.73369 24.0464 9.17493 24.7856 9.19328 25.7955C9.21789 27.1465 8.39504 28.1794 7.06048 28.4803C6.95997 28.5029 6.86029 28.5276 6.75019 28.5531C6.75019 28.9147 6.75019 29.2621 6.75019 29.6262C6.47035 29.6262 6.20385 29.6262 5.90107 29.6262C5.90107 29.3538 5.8919 29.078 5.90441 28.803C5.91192 28.6347 5.86896 28.5648 5.68796 28.5318C4.33171 28.2836 3.65358 27.3444 3.45214 26.1073C3.44797 26.0813 3.45506 26.0533 3.4584 26.0022C3.83083 25.9612 4.20117 25.9198 4.57193 25.8792C4.59945 25.8762 4.62907 25.8808 4.65492 25.8725C4.90223 25.7934 4.98815 25.8997 5.05946 26.1395C5.1875 26.5681 5.45983 26.9054 5.90149 27.1485C5.90149 27.0196 5.90149 26.9318 5.90149 26.8443C5.90149 26.1889 5.8969 25.5335 5.90524 24.878C5.90733 24.7257 5.85895 24.6604 5.7134 24.6152C5.23171 24.4654 4.77545 24.2557 4.41345 23.8928C3.67819 23.1554 3.5097 22.2547 3.78745 21.2879C4.05353 20.3609 4.74042 19.862 5.66919 19.6954C5.84727 19.6636 5.92943 19.6105 5.90399 19.4217C5.8894 19.3204 5.90066 19.2158 5.90066 19.089ZM6.76187 27.208C7.35492 27.1293 7.76822 26.6078 7.74528 25.9901C7.72568 25.4669 7.28402 25.0028 6.76187 24.9676C6.76187 25.7105 6.76187 26.453 6.76187 27.208ZM5.88731 22.9553C5.88731 22.2962 5.88731 21.6424 5.88731 20.9853C5.4736 21.0715 5.1508 21.4947 5.1337 21.9542C5.11827 22.3849 5.44565 22.8285 5.88731 22.9553Z" fill="black"/>
<path d="M11.6241 8.39061C13.8758 8.39061 16.1275 8.39103 18.3795 8.39019C19.0118 8.38977 19.6445 8.38433 20.2767 8.38433C20.64 8.38433 20.8602 8.58187 20.8552 8.89535C20.8501 9.20046 20.6341 9.38921 20.2792 9.38921C15.4143 9.38963 10.5494 9.38921 5.68447 9.38921C4.77405 9.38921 3.8632 9.39716 2.9532 9.3821C2.80139 9.37958 2.62498 9.31011 2.50653 9.21385C2.35056 9.08745 2.33095 8.88531 2.41228 8.69446C2.50028 8.48812 2.66418 8.38475 2.88814 8.38475C3.56918 8.38391 4.25023 8.38391 4.93127 8.38391C7.1625 8.38391 9.39331 8.38391 11.6245 8.38391C11.6241 8.38642 11.6241 8.38851 11.6241 8.39061Z" fill="black"/>
<path d="M11.6264 16.7464C14.5037 16.7464 17.3809 16.7464 20.2581 16.7464C20.6072 16.7464 20.8141 16.8975 20.8508 17.1758C20.8887 17.4654 20.691 17.7182 20.4008 17.7471C20.332 17.7538 20.2619 17.75 20.1922 17.75C14.4724 17.75 8.75251 17.75 3.03265 17.75C2.99803 17.75 2.963 17.7505 2.92838 17.75C2.59849 17.7454 2.37662 17.5487 2.37037 17.2558C2.36411 16.9536 2.58807 16.7468 2.9313 16.7464C5.19715 16.7452 7.46257 16.746 9.72842 16.746C10.3615 16.7464 10.9938 16.7464 11.6264 16.7464Z" fill="black"/>
<path d="M11.6266 14.964C8.77727 14.964 5.92797 14.964 3.07867 14.964C2.99526 14.964 2.91143 14.9677 2.82885 14.9589C2.5586 14.9301 2.36634 14.7145 2.37093 14.4521C2.37552 14.1955 2.56194 13.9934 2.8251 13.9637C2.89391 13.9561 2.96398 13.9587 3.03321 13.9587C8.75266 13.9587 14.4721 13.9587 20.192 13.9587C20.6332 13.9587 20.8601 14.134 20.8547 14.4693C20.8493 14.7953 20.6253 14.964 20.1957 14.964C17.3393 14.964 14.483 14.964 11.6266 14.964Z" fill="black"/>
<path d="M11.6066 12.175C8.7502 12.175 5.89381 12.175 3.03742 12.175C2.59743 12.175 2.36472 11.9963 2.37097 11.6652C2.37723 11.3409 2.60452 11.1705 3.03242 11.1705C6.80632 11.1705 10.5802 11.1705 14.3541 11.1705C16.2859 11.1705 18.2177 11.1705 20.1495 11.1705C20.2329 11.1705 20.3167 11.1668 20.3993 11.1751C20.6712 11.2027 20.8576 11.4128 20.8543 11.6815C20.851 11.9419 20.6695 12.1415 20.4039 12.1695C20.3213 12.1783 20.2375 12.175 20.1541 12.175C17.3052 12.175 14.4559 12.175 11.6066 12.175Z" fill="black"/>
<path d="M6.75045 5.54296C5.47969 5.54296 4.20935 5.54881 2.93859 5.53542C2.78887 5.53375 2.60245 5.46595 2.49902 5.36257C2.24629 5.11062 2.37516 4.68121 2.71589 4.57197C2.79972 4.54519 2.89313 4.53933 2.98197 4.53933C5.48136 4.53766 7.98117 4.53807 10.4806 4.53807C10.5223 4.53807 10.564 4.5364 10.6057 4.53933C10.8984 4.55942 11.102 4.77454 11.097 5.05621C11.0915 5.34039 10.8864 5.54128 10.5832 5.54212C9.30531 5.54421 8.02788 5.54254 6.75045 5.54296Z" fill="black"/>
<path d="M16.5013 21.4105C15.2363 21.4105 13.971 21.4164 12.7065 21.4034C12.5551 21.4017 12.3658 21.341 12.2615 21.2385C11.9883 20.9702 12.1481 20.5111 12.5255 20.4228C12.5922 20.4073 12.6631 20.4065 12.7324 20.4065C15.2413 20.4056 17.7507 20.4056 20.2597 20.406C20.5984 20.406 20.8152 20.5676 20.8515 20.8417C20.8941 21.1661 20.6714 21.4084 20.3177 21.4092C19.4281 21.4122 18.5385 21.4101 17.6486 21.4101C17.2657 21.4101 16.8833 21.4101 16.5013 21.4105Z" fill="black"/>
<path d="M6.76135 27.208C6.76135 26.4526 6.76135 25.7105 6.76135 24.9677C7.2835 25.0024 7.72558 25.467 7.74476 25.9901C7.7677 26.6079 7.3544 27.1293 6.76135 27.208Z" fill="white"/>
<path d="M5.8871 22.9554C5.44544 22.829 5.11764 22.3853 5.13349 21.9542C5.15017 21.4943 5.47338 21.0711 5.8871 20.9854C5.8871 21.6424 5.8871 22.2962 5.8871 22.9554Z" fill="white"/>
</svg>
