<svg width="30" height="28" viewBox="0 0 30 28" fill="none" xmlns="http://www.w3.org/2000/svg">
<path d="M0 23.6714C0.0589858 23.1358 0.110304 22.5997 0.179317 22.0653C0.396975 20.3694 0.700162 18.6966 1.36847 17.1059C1.81028 16.0531 2.61956 15.4762 3.65181 15.0947C4.63275 14.7328 5.5954 14.3165 6.54625 13.8801C6.89191 13.7219 7.17976 13.4373 7.4623 13.2341C7.59856 13.6935 7.71948 14.235 7.91944 14.7458C8.3117 15.7454 8.98236 16.4983 10.0571 16.7705C11.2103 17.0628 12.3062 16.973 13.1857 16.0501C13.6782 15.5335 13.8894 14.881 13.9791 14.1872C14.0203 13.8677 14.0345 13.5453 14.064 13.191C14.7819 14.0041 15.7752 14.2722 16.7201 14.6348C17.2687 14.845 17.8143 15.064 18.3534 15.2961C19.2247 15.671 19.847 16.2922 20.1714 17.1956C20.1979 17.2695 20.2268 17.3421 20.2551 17.4153C20.5123 18.0713 20.5123 18.0713 19.9508 18.5803C18.2844 16.8945 16.3686 15.5352 14.2929 14.3289C12.8748 17.2187 11.4598 20.1025 10.0294 23.0177C10.7053 23.2002 11.3713 23.3549 12.0219 23.5598C13.6128 24.0605 15.1216 24.7342 16.4081 25.8248C16.68 26.0557 16.8947 26.3545 17.1873 26.6798C16.7537 26.7696 16.3981 26.8658 16.0365 26.9143C14.5306 27.115 13.0264 27.3536 11.5134 27.474C10.6216 27.5455 9.71084 27.4593 8.81425 27.3778C7.04645 27.2172 5.29162 26.9462 3.57336 26.498C2.63844 26.2541 1.73064 25.9063 0.806337 25.6188C0.342118 25.4741 0.136257 25.1423 0.0589858 24.6941C0.0477785 24.6274 0.020645 24.5636 0.00117972 24.498C0 24.2223 0 23.9465 0 23.6714Z" fill="white"/>
<path d="M16.1642 4.86821C16.1188 5.25793 16.084 5.64941 16.025 6.03676C15.9748 6.36684 15.9312 6.66385 16.0167 7.02286C16.1954 7.77453 15.9949 8.51676 15.6374 9.20584C15.5667 9.34224 15.4947 9.48336 15.4581 9.63098C15.0381 11.3156 14.174 12.7085 12.7247 13.6846C11.2825 14.6559 9.83382 14.5579 8.49897 13.446C7.26852 12.421 6.5253 11.103 6.19793 9.54123C6.18201 9.46565 6.17257 9.38062 6.13128 9.3198C5.70835 8.6998 5.61987 7.99419 5.61574 7.27263C5.61456 7.1067 5.67001 6.90771 5.77146 6.78312C5.90477 6.62015 5.89474 6.47608 5.8682 6.29598C5.74256 5.4392 5.61338 4.57061 5.80214 3.71797C5.91185 3.22197 6.1124 2.71534 6.39141 2.29256C7.09216 1.23089 8.06012 0.464453 9.29469 0.108396C9.88101 -0.0604795 10.4962 -0.0244605 11.0884 0.163901C11.9455 0.43611 12.8268 0.650452 13.6526 0.997651C15.3425 1.7074 16.1565 3.03125 16.1642 4.86821Z" fill="white"/>
<path d="M20.0868 27.0672C19.6975 26.56 19.2976 26.0988 18.9643 25.5934C17.9923 24.1195 16.6067 23.1677 15.0489 22.4325C14.3334 22.0948 13.5955 21.8037 12.8381 21.4789C13.5837 19.9608 14.334 18.4333 15.0955 16.8833C16.9441 18.1303 18.591 19.5428 19.9665 21.3089C20.0556 21.2097 20.1388 21.1217 20.2172 21.0296C21.9089 19.042 23.6974 17.1502 25.7489 15.5269C27.0006 14.5367 28.3224 13.6599 29.8449 13.1302C29.8702 13.1214 29.8986 13.1208 30 13.1036C29.7157 13.2896 29.4868 13.429 29.2692 13.5843C27.6305 14.7534 26.3523 16.2686 25.1874 17.8859C23.2514 20.5743 21.6972 23.4801 20.3511 26.5015C20.2715 26.6792 20.1859 26.8552 20.0868 27.0672Z" fill="white"/>
</svg>
