<svg width="20" height="23" viewBox="0 0 20 23" fill="none" xmlns="http://www.w3.org/2000/svg">
<path d="M9.65208 22.9411C5.96486 22.852 2.71633 21.2672 0.247899 18.1571C0.0477299 17.9054 -0.0383238 17.4576 0.0159275 17.1334C0.249769 15.741 0.666008 14.3959 1.57238 13.2756C1.91566 12.851 2.35622 12.472 2.8239 12.1878C3.83223 11.5756 4.08197 11.6276 4.98179 12.3791C8.05354 14.943 12.4198 14.8148 15.327 12.0531C15.6309 11.7642 15.9031 11.7047 16.2848 11.8199C17.149 12.081 17.8693 12.538 18.4118 13.2616C19.3172 14.4711 19.7643 15.8636 19.9926 17.3267C20.0337 17.5886 19.8981 17.9379 19.7307 18.1627C17.526 21.1251 13.7555 22.9569 9.65208 22.9411Z" fill="#334249"/>
<path d="M15.8813 6.16761C15.9054 9.57029 13.3051 12.3351 10.0632 12.3529C6.7349 12.3706 4.12929 9.69711 4.11681 6.24781C4.10344 2.8069 6.70817 0.0178024 9.95361 8.49335e-05C13.208 -0.0176325 15.8572 2.73882 15.8813 6.16761Z" fill="#334249"/>
</svg>
